<svg width="444" height="444" viewBox="0 0 444 444" fill="none" xmlns="http://www.w3.org/2000/svg">
<g filter="url(#filter0_f_661_18097)">
<path d="M294 222C294 261.765 261.765 294 222 294C182.236 294 150 261.765 150 222C150 182.236 182.236 150 222 150C261.765 150 294 182.236 294 222Z" fill="#95FF00"/>
</g>
<g filter="url(#filter1_b_661_18097)">
<path d="M342 222C342 288.274 288.274 342 222 342C155.726 342 102 288.274 102 222C102 155.726 155.726 102 222 102C288.274 102 342 155.726 342 222Z" fill="#060606" fill-opacity="0.75"/>
<path d="M325.217 222C325.217 279.005 279.005 325.217 222 325.217C164.995 325.217 118.783 279.005 118.783 222C118.783 164.995 164.995 118.783 222 118.783C279.005 118.783 325.217 164.995 325.217 222Z" stroke="#95FF00" stroke-width="33.5664"/>
</g>
<path d="M111.602 202.672L112.21 200.207L121.724 197.323L121.776 197.115L114.694 190.138L115.302 187.673L124.168 196.674L131.494 198.481L130.963 200.634L123.637 198.827L111.602 202.672Z" fill="#060606"/>
<path d="M131.434 173.016C133.198 173.801 134.581 174.798 135.582 176.007C136.584 177.216 137.186 178.531 137.388 179.952C137.591 181.373 137.374 182.797 136.739 184.223C136.104 185.65 135.191 186.764 134 187.564C132.808 188.365 131.428 188.797 129.86 188.863C128.291 188.928 126.625 188.567 124.861 187.782C123.097 186.997 121.714 186 120.712 184.791C119.711 183.582 119.109 182.267 118.907 180.846C118.704 179.425 118.92 178.001 119.555 176.574C120.19 175.148 121.104 174.034 122.295 173.234C123.486 172.433 124.866 172 126.435 171.935C128.003 171.87 129.67 172.23 131.434 173.016ZM130.561 174.976C129.113 174.331 127.783 174.029 126.571 174.07C125.361 174.106 124.317 174.421 123.439 175.015C122.564 175.604 121.901 176.405 121.45 177.418C120.999 178.431 120.847 179.462 120.993 180.512C121.141 181.556 121.605 182.543 122.386 183.471C123.169 184.394 124.285 185.177 125.733 185.822C127.182 186.467 128.511 186.771 129.72 186.736C130.933 186.695 131.976 186.38 132.852 185.791C133.729 185.196 134.394 184.393 134.845 183.38C135.295 182.367 135.447 181.339 135.298 180.294C135.153 179.244 134.688 178.258 133.905 177.335C133.124 176.407 132.01 175.621 130.561 174.976Z" fill="#060606"/>
<path d="M132.683 154.614L133.948 152.793L143.905 159.708C144.933 160.422 145.682 161.301 146.154 162.347C146.623 163.384 146.786 164.502 146.643 165.702C146.495 166.897 146.011 168.085 145.192 169.265C144.372 170.445 143.428 171.313 142.36 171.87C141.286 172.423 140.18 172.663 139.04 172.59C137.899 172.509 136.815 172.112 135.787 171.398L125.83 164.484L127.094 162.662L136.905 169.475C137.639 169.985 138.405 170.277 139.202 170.352C139.994 170.423 140.762 170.274 141.504 169.904C142.246 169.527 142.907 168.919 143.488 168.082C144.069 167.245 144.408 166.413 144.503 165.587C144.593 164.757 144.464 163.985 144.117 163.273C143.769 162.552 143.228 161.937 142.493 161.427L132.683 154.614Z" fill="#060606"/>
<path d="M151.204 160.628L138.211 147.729L142.57 143.339C143.577 142.324 144.578 141.663 145.572 141.356C146.561 141.044 147.511 141.03 148.422 141.314C149.334 141.597 150.172 142.118 150.938 142.878C151.703 143.638 152.227 144.469 152.508 145.37C152.79 146.271 152.778 147.213 152.474 148.196C152.166 149.174 151.512 150.167 150.513 151.174L146.986 154.727L145.564 153.316L149.041 149.814C149.73 149.12 150.183 148.461 150.399 147.837C150.62 147.208 150.639 146.613 150.456 146.054C150.273 145.485 149.921 144.943 149.401 144.427C148.881 143.91 148.329 143.556 147.747 143.364C147.165 143.172 146.556 143.185 145.92 143.402C145.281 143.615 144.612 144.073 143.915 144.775L141.169 147.541L152.767 159.055L151.204 160.628ZM151.439 148.718L160.451 151.315L158.637 153.142L149.676 150.494L151.439 148.718Z" fill="#060606"/>
<path d="M167.178 146.018L157.463 130.499L162.707 127.216C163.925 126.454 165.057 126.051 166.105 126.007C167.155 125.954 168.1 126.182 168.938 126.691C169.777 127.199 170.483 127.911 171.055 128.825C171.627 129.74 171.961 130.688 172.055 131.669C172.154 132.648 171.957 133.601 171.462 134.53C170.964 135.453 170.112 136.293 168.904 137.048L165.146 139.401L164.102 137.734L167.8 135.419C168.633 134.897 169.213 134.334 169.538 133.73C169.863 133.126 169.985 132.508 169.906 131.875C169.828 131.235 169.595 130.604 169.206 129.983C168.817 129.361 168.353 128.878 167.814 128.534C167.28 128.186 166.671 128.033 165.987 128.074C165.299 128.111 164.534 128.393 163.69 128.921L160.386 130.99L169.058 144.842L167.178 146.018Z" fill="#060606"/>
<path d="M180.254 138.155L173.058 121.319L183.219 116.976L183.992 118.785L175.87 122.256L178.301 127.945L185.897 124.699L186.67 126.507L179.074 129.753L181.519 135.475L189.773 131.948L190.546 133.756L180.254 138.155Z" fill="#060606"/>
<path d="M193.171 132.83L188.718 115.071L194.719 113.566C196.106 113.219 197.305 113.17 198.314 113.421C199.321 113.666 200.142 114.145 200.776 114.859C201.409 115.573 201.857 116.453 202.12 117.499C202.382 118.545 202.401 119.527 202.176 120.443C201.951 121.36 201.454 122.16 200.686 122.845C199.916 123.523 198.843 124.035 197.467 124.38L192.611 125.597L192.124 123.655L196.91 122.455C197.859 122.217 198.587 121.887 199.095 121.465C199.61 121.041 199.933 120.542 200.066 119.968C200.203 119.387 200.182 118.74 200.004 118.029C199.825 117.318 199.537 116.73 199.137 116.265C198.738 115.8 198.21 115.496 197.554 115.353C196.896 115.205 196.087 115.251 195.128 115.492L191.347 116.439L195.321 132.291L193.171 132.83ZM199.53 122.757L205.9 129.639L203.403 130.265L197.102 123.365L199.53 122.757Z" fill="#060606"/>
<path d="M216.242 114.886C216.058 113.993 215.565 113.329 214.762 112.895C213.96 112.46 213.006 112.29 211.902 112.384C211.094 112.453 210.398 112.644 209.815 112.957C209.237 113.269 208.799 113.668 208.499 114.154C208.205 114.64 208.083 115.173 208.133 115.755C208.174 116.242 208.326 116.651 208.587 116.982C208.854 117.306 209.181 117.568 209.569 117.769C209.957 117.963 210.358 118.117 210.775 118.231C211.191 118.34 211.572 118.424 211.918 118.484L213.813 118.825C214.299 118.91 214.842 119.037 215.443 119.207C216.049 119.377 216.636 119.629 217.203 119.964C217.775 120.292 218.261 120.735 218.662 121.293C219.062 121.851 219.299 122.558 219.371 123.413C219.455 124.399 219.273 125.311 218.824 126.151C218.381 126.99 217.686 127.686 216.74 128.239C215.8 128.792 214.63 129.128 213.228 129.247C211.922 129.358 210.772 129.243 209.78 128.903C208.794 128.562 207.996 128.038 207.386 127.33C206.781 126.622 206.401 125.772 206.245 124.781L208.525 124.587C208.643 125.27 208.923 125.821 209.365 126.238C209.813 126.648 210.358 126.937 211 127.104C211.648 127.264 212.334 127.313 213.058 127.252C213.902 127.18 214.647 126.979 215.295 126.649C215.942 126.312 216.441 125.881 216.791 125.355C217.141 124.823 217.287 124.224 217.23 123.559C217.179 122.953 216.968 122.475 216.597 122.124C216.226 121.772 215.754 121.501 215.182 121.311C214.609 121.12 213.995 120.963 213.338 120.84L211.039 120.389C209.579 120.101 208.401 119.612 207.505 118.922C206.609 118.233 206.109 117.273 206.004 116.044C205.917 115.023 206.118 114.108 206.605 113.301C207.098 112.488 207.796 111.83 208.698 111.329C209.606 110.821 210.642 110.518 211.806 110.419C212.982 110.319 214.045 110.44 214.995 110.784C215.945 111.122 216.718 111.631 217.314 112.31C217.916 112.988 218.271 113.787 218.379 114.704L216.242 114.886Z" fill="#060606"/>
<path d="M239.942 120.614C239.756 122.536 239.248 124.163 238.419 125.496C237.589 126.829 236.533 127.817 235.249 128.459C233.965 129.101 232.547 129.347 230.992 129.197C229.438 129.047 228.093 128.533 226.956 127.657C225.819 126.781 224.971 125.609 224.413 124.142C223.854 122.675 223.667 120.98 223.853 119.058C224.039 117.136 224.547 115.508 225.376 114.175C226.206 112.843 227.262 111.855 228.546 111.213C229.83 110.57 231.248 110.324 232.803 110.475C234.357 110.625 235.702 111.138 236.839 112.015C237.976 112.891 238.824 114.063 239.382 115.53C239.941 116.997 240.128 118.692 239.942 120.614ZM237.806 120.407C237.959 118.829 237.823 117.472 237.4 116.335C236.983 115.199 236.354 114.309 235.512 113.665C234.676 113.021 233.706 112.646 232.603 112.539C231.5 112.432 230.473 112.614 229.523 113.086C228.58 113.557 227.791 114.31 227.158 115.345C226.531 116.38 226.142 117.686 225.989 119.264C225.836 120.842 225.969 122.199 226.386 123.335C226.809 124.472 227.438 125.362 228.274 126.006C229.116 126.65 230.089 127.026 231.192 127.132C232.295 127.239 233.319 127.057 234.263 126.585C235.212 126.114 236.001 125.361 236.628 124.326C237.261 123.291 237.653 121.985 237.806 120.407Z" fill="#060606"/>
<path d="M259.907 116.576L254.785 134.154L252.725 133.553L247.168 116.961L246.997 116.911L242.975 130.712L240.846 130.091L245.969 112.514L248.029 113.114L253.609 129.751L253.781 129.801L257.813 115.966L259.907 116.576Z" fill="#060606"/>
<path d="M258.784 135.828L256.709 134.781L270.956 121.461L273 122.492L270.758 141.867L268.682 140.82L270.737 124.595L270.61 124.53L258.784 135.828ZM262.771 129.829L271.136 134.048L270.251 135.804L261.885 131.585L262.771 129.829Z" fill="#060606"/>
<path d="M272.262 143.005L282.924 128.121L284.726 129.412L275.21 142.697L282.129 147.653L280.983 149.252L272.262 143.005Z" fill="#060606"/>
<path d="M291.17 159.099L287.429 154.864L301.15 142.742L305.057 147.164C306.233 148.495 306.964 149.877 307.252 151.309C307.543 152.737 307.401 154.155 306.824 155.564C306.251 156.968 305.255 158.298 303.834 159.553C302.405 160.815 300.95 161.648 299.468 162.05C297.991 162.449 296.545 162.406 295.131 161.921C293.722 161.433 292.401 160.492 291.17 159.099ZM290.371 155.224L292.549 157.689C293.552 158.824 294.601 159.571 295.698 159.93C296.795 160.289 297.909 160.295 299.041 159.947C300.173 159.599 301.297 158.931 302.414 157.945C303.522 156.966 304.315 155.943 304.795 154.875C305.28 153.803 305.418 152.718 305.212 151.62C305.01 150.518 304.435 149.431 303.488 148.359L301.144 145.706L290.371 155.224Z" fill="#060606"/>
<path d="M298.183 167.532L313.667 157.76L319.564 167.104L317.901 168.154L313.187 160.685L307.955 163.986L312.364 170.972L310.7 172.022L306.292 165.036L301.03 168.357L305.82 175.947L304.157 176.997L298.183 167.532Z" fill="#060606"/>
<path d="M322.72 173.087L310.643 184.097L310.726 184.295L327.039 183.297L327.944 185.438L308.463 186.378L307.571 184.271L321.815 170.947L322.72 173.087Z" fill="#060606"/>
<path d="M327.26 201.158C328.118 200.847 328.703 200.263 329.016 199.405C329.329 198.548 329.359 197.58 329.106 196.501C328.921 195.712 328.631 195.051 328.237 194.519C327.844 193.993 327.386 193.617 326.862 193.391C326.339 193.171 325.793 193.128 325.224 193.261C324.748 193.373 324.366 193.582 324.076 193.889C323.794 194.2 323.582 194.562 323.44 194.974C323.304 195.386 323.21 195.806 323.158 196.235C323.111 196.662 323.083 197.051 323.073 197.402L323.011 199.327C322.998 199.82 322.951 200.375 322.869 200.994C322.789 201.619 322.625 202.236 322.376 202.846C322.135 203.459 321.767 204.005 321.273 204.482C320.778 204.959 320.114 205.296 319.278 205.492C318.315 205.718 317.385 205.669 316.489 205.347C315.595 205.03 314.805 204.444 314.121 203.589C313.438 202.739 312.936 201.629 312.614 200.26C312.315 198.983 312.262 197.83 312.454 196.799C312.649 195.774 313.052 194.908 313.663 194.201C314.276 193.5 315.062 193.001 316.02 192.702L316.543 194.93C315.884 195.146 315.38 195.503 315.031 196.001C314.69 196.504 314.484 197.085 314.412 197.745C314.347 198.409 314.398 199.095 314.564 199.802C314.757 200.626 315.064 201.335 315.485 201.928C315.912 202.52 316.411 202.95 316.982 203.22C317.559 203.489 318.173 203.547 318.823 203.395C319.415 203.256 319.857 202.977 320.151 202.56C320.445 202.142 320.645 201.636 320.75 201.042C320.856 200.448 320.922 199.817 320.949 199.149L321.061 196.809C321.135 195.323 321.448 194.086 322 193.099C322.552 192.113 323.428 191.479 324.63 191.197C325.628 190.963 326.561 191.028 327.431 191.394C328.307 191.764 329.059 192.359 329.686 193.179C330.32 194.003 330.771 194.984 331.037 196.121C331.307 197.27 331.34 198.34 331.138 199.33C330.942 200.319 330.551 201.158 329.965 201.846C329.381 202.54 328.643 203.007 327.75 203.247L327.26 201.158Z" fill="#060606"/>
<path d="M332.891 242.899L332.283 245.364L322.769 248.247L322.717 248.455L329.799 255.432L329.191 257.897L320.325 248.896L312.999 247.089L313.53 244.937L320.856 246.744L332.891 242.899Z" fill="#060606"/>
<path d="M313.059 272.555C311.295 271.769 309.912 270.772 308.911 269.563C307.91 268.354 307.308 267.039 307.105 265.618C306.903 264.197 307.119 262.773 307.754 261.347C308.389 259.92 309.302 258.807 310.493 258.006C311.685 257.206 313.065 256.773 314.633 256.708C316.202 256.643 317.868 257.003 319.632 257.788C321.396 258.573 322.779 259.571 323.781 260.78C324.782 261.989 325.384 263.304 325.587 264.725C325.789 266.146 325.573 267.569 324.938 268.996C324.303 270.423 323.39 271.536 322.198 272.337C321.007 273.137 319.627 273.57 318.058 273.635C316.49 273.7 314.823 273.34 313.059 272.555ZM313.932 270.594C315.38 271.239 316.71 271.541 317.923 271.5C319.132 271.464 320.176 271.149 321.054 270.555C321.929 269.966 322.592 269.165 323.043 268.153C323.494 267.14 323.646 266.108 323.5 265.058C323.352 264.014 322.888 263.027 322.107 262.099C321.324 261.177 320.208 260.393 318.76 259.748C317.311 259.104 315.982 258.799 314.773 258.835C313.561 258.876 312.517 259.191 311.642 259.78C310.764 260.374 310.099 261.178 309.649 262.19C309.198 263.203 309.047 264.232 309.195 265.276C309.341 266.326 309.805 267.313 310.588 268.235C311.369 269.163 312.483 269.95 313.932 270.594Z" fill="#060606"/>
<path d="M311.81 290.956L310.546 292.777L300.588 285.863C299.56 285.149 298.811 284.269 298.34 283.224C297.87 282.186 297.707 281.068 297.85 279.869C297.998 278.673 298.482 277.485 299.301 276.305C300.121 275.126 301.065 274.257 302.133 273.701C303.207 273.147 304.313 272.907 305.453 272.98C306.594 273.061 307.678 273.459 308.706 274.172L318.663 281.087L317.399 282.908L307.588 276.095C306.854 275.586 306.088 275.293 305.291 275.219C304.499 275.147 303.732 275.297 302.989 275.666C302.248 276.044 301.586 276.651 301.005 277.488C300.424 278.325 300.086 279.157 299.991 279.984C299.9 280.814 300.029 281.585 300.376 282.297C300.724 283.018 301.266 283.634 302 284.144L311.81 290.956Z" fill="#060606"/>
<path d="M293.289 284.942L306.282 297.841L301.923 302.232C300.916 303.247 299.915 303.908 298.922 304.215C297.932 304.526 296.982 304.54 296.071 304.257C295.159 303.973 294.321 303.452 293.555 302.692C292.79 301.932 292.266 301.101 291.985 300.201C291.704 299.3 291.715 298.358 292.019 297.375C292.327 296.396 292.981 295.403 293.98 294.396L297.508 290.844L298.929 292.254L295.452 295.757C294.763 296.45 294.311 297.109 294.094 297.734C293.873 298.363 293.854 298.957 294.037 299.517C294.22 300.085 294.572 300.627 295.092 301.144C295.613 301.66 296.164 302.014 296.746 302.206C297.328 302.398 297.937 302.385 298.573 302.168C299.213 301.955 299.881 301.497 300.578 300.795L303.324 298.029L291.727 286.515L293.289 284.942ZM293.054 296.853L284.043 294.256L285.856 292.428L294.817 295.076L293.054 296.853Z" fill="#060606"/>
<path d="M277.315 299.552L287.03 315.071L281.786 318.354C280.569 319.116 279.436 319.519 278.388 319.564C277.338 319.616 276.393 319.388 275.555 318.88C274.716 318.371 274.011 317.66 273.438 316.745C272.866 315.831 272.532 314.883 272.438 313.901C272.339 312.923 272.537 311.969 273.031 311.041C273.529 310.117 274.382 309.278 275.589 308.522L279.348 306.169L280.391 307.836L276.693 310.151C275.86 310.673 275.28 311.236 274.956 311.84C274.631 312.444 274.508 313.063 274.587 313.695C274.665 314.335 274.898 314.966 275.287 315.588C275.676 316.209 276.14 316.692 276.679 317.037C277.213 317.384 277.822 317.537 278.507 317.496C279.194 317.459 279.959 317.177 280.803 316.649L284.107 314.581L275.436 300.729L277.315 299.552Z" fill="#060606"/>
<path d="M264.24 307.416L271.435 324.251L261.274 328.594L260.501 326.785L268.623 323.314L266.192 317.625L258.596 320.872L257.823 319.063L265.419 315.817L262.974 310.095L254.72 313.623L253.947 311.814L264.24 307.416Z" fill="#060606"/>
<path d="M251.322 312.74L255.775 330.499L249.774 332.004C248.387 332.352 247.189 332.4 246.179 332.149C245.172 331.904 244.351 331.425 243.718 330.711C243.084 329.998 242.636 329.118 242.374 328.071C242.111 327.025 242.093 326.044 242.317 325.127C242.542 324.21 243.039 323.41 243.808 322.726C244.578 322.047 245.65 321.535 247.026 321.191L251.882 319.973L252.369 321.915L247.583 323.116C246.635 323.353 245.906 323.683 245.398 324.106C244.884 324.53 244.56 325.029 244.427 325.603C244.291 326.184 244.311 326.83 244.489 327.541C244.668 328.252 244.957 328.84 245.356 329.305C245.755 329.77 246.283 330.074 246.939 330.217C247.597 330.365 248.406 330.319 249.365 330.079L253.146 329.131L249.172 313.279L251.322 312.74ZM244.963 322.814L238.593 315.932L241.09 315.306L247.391 322.205L244.963 322.814Z" fill="#060606"/>
<path d="M228.252 330.684C228.435 331.578 228.928 332.241 229.731 332.676C230.533 333.11 231.487 333.28 232.592 333.186C233.399 333.117 234.095 332.927 234.678 332.614C235.256 332.301 235.694 331.902 235.994 331.416C236.288 330.931 236.41 330.397 236.36 329.815C236.319 329.328 236.167 328.919 235.906 328.588C235.639 328.264 235.312 328.002 234.924 327.802C234.537 327.607 234.135 327.453 233.718 327.339C233.302 327.231 232.921 327.147 232.575 327.086L230.68 326.745C230.194 326.661 229.651 326.533 229.05 326.363C228.444 326.194 227.857 325.941 227.29 325.607C226.718 325.279 226.232 324.835 225.831 324.277C225.431 323.719 225.195 323.013 225.122 322.157C225.038 321.172 225.221 320.259 225.67 319.419C226.113 318.58 226.807 317.884 227.753 317.331C228.693 316.778 229.864 316.443 231.265 316.323C232.572 316.212 233.721 316.327 234.713 316.667C235.699 317.008 236.497 317.532 237.107 318.24C237.712 318.948 238.092 319.798 238.248 320.79L235.968 320.984C235.85 320.3 235.57 319.75 235.128 319.333C234.68 318.922 234.135 318.633 233.493 318.467C232.845 318.306 232.159 318.257 231.435 318.319C230.591 318.39 229.846 318.591 229.198 318.922C228.551 319.258 228.052 319.689 227.702 320.215C227.353 320.748 227.206 321.346 227.263 322.011C227.314 322.617 227.525 323.095 227.896 323.447C228.267 323.798 228.739 324.069 229.311 324.26C229.884 324.45 230.498 324.607 231.155 324.731L233.454 325.181C234.914 325.47 236.092 325.959 236.988 326.648C237.884 327.338 238.385 328.297 238.489 329.526C238.576 330.548 238.376 331.462 237.888 332.269C237.395 333.083 236.697 333.74 235.795 334.241C234.887 334.749 233.851 335.053 232.687 335.152C231.511 335.252 230.448 335.13 229.498 334.786C228.548 334.448 227.775 333.94 227.179 333.261C226.577 332.582 226.222 331.784 226.114 330.866L228.252 330.684Z" fill="#060606"/>
<path d="M204.552 324.957C204.737 323.035 205.245 321.407 206.075 320.074C206.904 318.741 207.96 317.754 209.244 317.111C210.528 316.469 211.947 316.223 213.501 316.373C215.055 316.524 216.401 317.037 217.537 317.913C218.674 318.79 219.522 319.962 220.081 321.429C220.639 322.896 220.826 324.59 220.64 326.512C220.454 328.435 219.946 330.062 219.117 331.395C218.287 332.728 217.231 333.715 215.947 334.358C214.664 335 213.245 335.246 211.69 335.096C210.136 334.945 208.791 334.432 207.654 333.556C206.517 332.679 205.669 331.508 205.111 330.041C204.552 328.573 204.366 326.879 204.552 324.957ZM206.687 325.163C206.535 326.741 206.67 328.099 207.093 329.235C207.51 330.371 208.139 331.261 208.981 331.906C209.817 332.549 210.787 332.925 211.89 333.031C212.994 333.138 214.02 332.956 214.97 332.485C215.914 332.013 216.702 331.26 217.335 330.226C217.962 329.19 218.352 327.884 218.504 326.306C218.657 324.728 218.525 323.371 218.108 322.235C217.685 321.098 217.055 320.208 216.219 319.564C215.377 318.92 214.405 318.545 213.301 318.438C212.198 318.331 211.174 318.514 210.231 318.985C209.281 319.456 208.492 320.209 207.865 321.244C207.233 322.279 206.84 323.585 206.687 325.163Z" fill="#060606"/>
<path d="M184.586 328.994L189.709 311.417L191.769 312.017L197.325 328.61L197.496 328.66L201.519 314.859L203.647 315.479L198.524 333.057L196.464 332.456L190.884 315.819L190.712 315.769L186.68 329.605L184.586 328.994Z" fill="#060606"/>
<path d="M185.709 309.742L187.784 310.789L173.537 324.109L171.494 323.079L173.736 303.704L175.811 304.75L173.756 320.976L173.884 321.04L185.709 309.742ZM181.722 315.742L173.357 311.523L174.242 309.767L182.608 313.986L181.722 315.742Z" fill="#060606"/>
<path d="M172.231 302.565L161.569 317.45L159.767 316.158L169.283 302.873L162.364 297.917L163.51 296.318L172.231 302.565Z" fill="#060606"/>
<path d="M153.324 286.472L157.065 290.706L143.344 302.828L139.437 298.406C138.261 297.075 137.53 295.694 137.243 294.262C136.951 292.833 137.094 291.415 137.67 290.007C138.243 288.602 139.239 287.272 140.66 286.018C142.089 284.755 143.544 283.922 145.026 283.52C146.503 283.122 147.949 283.164 149.363 283.649C150.772 284.137 152.093 285.078 153.324 286.472ZM154.123 290.347L151.945 287.881C150.943 286.747 149.893 286 148.796 285.641C147.7 285.281 146.585 285.276 145.453 285.624C144.321 285.972 143.197 286.639 142.08 287.626C140.973 288.604 140.179 289.628 139.699 290.696C139.215 291.768 139.076 292.853 139.282 293.951C139.484 295.053 140.059 296.139 141.006 297.211L143.35 299.865L154.123 290.347Z" fill="#060606"/>
<path d="M146.31 278.039L130.827 287.81L124.929 278.466L126.592 277.416L131.307 284.886L136.538 281.584L132.129 274.598L133.793 273.549L138.201 280.534L143.463 277.213L138.673 269.623L140.336 268.573L146.31 278.039Z" fill="#060606"/>
<path d="M121.773 272.483L133.85 261.473L133.767 261.275L117.454 262.273L116.549 260.132L136.03 259.192L136.922 261.3L122.678 274.624L121.773 272.483Z" fill="#060606"/>
<path d="M117.233 244.412C116.375 244.724 115.79 245.308 115.477 246.165C115.164 247.022 115.134 247.99 115.387 249.069C115.572 249.858 115.862 250.519 116.256 251.051C116.649 251.577 117.107 251.953 117.632 252.179C118.155 252.399 118.7 252.442 119.269 252.309C119.745 252.197 120.127 251.988 120.417 251.682C120.699 251.371 120.911 251.009 121.053 250.596C121.189 250.184 121.283 249.764 121.336 249.336C121.382 248.909 121.41 248.519 121.42 248.168L121.482 246.244C121.495 245.751 121.543 245.195 121.624 244.576C121.704 243.951 121.868 243.334 122.117 242.725C122.359 242.111 122.727 241.565 123.221 241.088C123.715 240.611 124.38 240.275 125.215 240.079C126.178 239.853 127.108 239.901 128.004 240.223C128.898 240.54 129.688 241.126 130.372 241.982C131.055 242.831 131.557 243.941 131.879 245.31C132.178 246.587 132.232 247.741 132.039 248.772C131.845 249.797 131.442 250.662 130.83 251.369C130.217 252.07 129.431 252.57 128.473 252.868L127.95 250.64C128.609 250.424 129.113 250.067 129.462 249.569C129.803 249.066 130.01 248.485 130.081 247.826C130.146 247.162 130.095 246.476 129.929 245.768C129.736 244.944 129.429 244.235 129.008 243.642C128.581 243.051 128.083 242.62 127.511 242.35C126.934 242.081 126.32 242.023 125.67 242.176C125.079 242.314 124.636 242.593 124.342 243.011C124.048 243.429 123.849 243.935 123.743 244.529C123.638 245.123 123.571 245.753 123.544 246.421L123.432 248.761C123.358 250.248 123.046 251.484 122.493 252.471C121.941 253.457 121.065 254.092 119.864 254.373C118.866 254.608 117.932 254.542 117.063 254.177C116.186 253.807 115.434 253.212 114.807 252.392C114.173 251.567 113.723 250.586 113.456 249.449C113.186 248.3 113.153 247.23 113.355 246.24C113.552 245.251 113.943 244.413 114.528 243.725C115.112 243.03 115.85 242.563 116.743 242.323L117.233 244.412Z" fill="#060606"/>
<circle cx="326.056" cy="222.838" r="6.71329" fill="#060606"/>
<circle cx="118.784" cy="222.838" r="6.71329" fill="#060606"/>
<defs>
<filter id="filter0_f_661_18097" x="0" y="0" width="444" height="444" filterUnits="userSpaceOnUse" color-interpolation-filters="sRGB">
<feFlood flood-opacity="0" result="BackgroundImageFix"/>
<feBlend mode="normal" in="SourceGraphic" in2="BackgroundImageFix" result="shape"/>
<feGaussianBlur stdDeviation="75" result="effect1_foregroundBlur_661_18097"/>
</filter>
<filter id="filter1_b_661_18097" x="52" y="52" width="340" height="340" filterUnits="userSpaceOnUse" color-interpolation-filters="sRGB">
<feFlood flood-opacity="0" result="BackgroundImageFix"/>
<feGaussianBlur in="BackgroundImageFix" stdDeviation="25"/>
<feComposite in2="SourceAlpha" operator="in" result="effect1_backgroundBlur_661_18097"/>
<feBlend mode="normal" in="SourceGraphic" in2="effect1_backgroundBlur_661_18097" result="shape"/>
</filter>
</defs>
</svg>
