<svg width="35" height="35" viewBox="0 0 35 35" fill="none" xmlns="http://www.w3.org/2000/svg">
<path d="M33.9534 1.04644C33.6412 0.731974 33.2505 0.506743 32.822 0.3941C32.3934 0.281457 31.9424 0.285503 31.5159 0.405819L2.40656 8.60894C1.91989 8.75098 1.48748 9.03674 1.16603 9.42878C0.84458 9.82082 0.649081 10.3008 0.605162 10.8059C0.561243 11.311 0.670953 11.8175 0.919911 12.2592C1.16887 12.7008 1.54546 13.0569 2.00031 13.2808L15.3909 19.6089L21.7191 32.9996C21.9221 33.4244 22.2411 33.7833 22.6391 34.0348C23.0372 34.2864 23.4982 34.4204 23.9691 34.4214H24.1878C24.6968 34.3823 25.1813 34.1873 25.5755 33.8629C25.9697 33.5387 26.2544 33.1008 26.3909 32.6089L34.5941 3.48394C34.7144 3.05744 34.7184 2.60652 34.6058 2.17793C34.4931 1.74934 34.2679 1.35868 33.9534 1.04644ZM23.9847 31.9214L17.8284 18.9371L24.2816 12.4839C24.407 12.3702 24.5081 12.2322 24.5786 12.0783C24.6492 11.9244 24.6877 11.7577 24.6919 11.5884C24.696 11.4191 24.6658 11.2508 24.6029 11.0935C24.54 10.9363 24.4459 10.7935 24.3261 10.6738C24.2064 10.554 24.0636 10.4599 23.9063 10.397C23.7491 10.3341 23.5808 10.3038 23.4115 10.308C23.2422 10.3122 23.0755 10.3507 22.9216 10.4212C22.7676 10.4918 22.6296 10.5928 22.5159 10.7183L16.0628 17.1714L3.07844 11.0152L32.1878 2.81207L23.9847 31.9214Z" fill="#595959"/>
</svg>
