<svg width="30" height="34" viewBox="0 0 30 34" fill="none" xmlns="http://www.w3.org/2000/svg">
<path d="M3.33333 33.3333C2.41667 33.3333 1.63167 33.0072 0.978333 32.355C0.326111 31.7017 0 30.9167 0 30V6.66667C0 5.75 0.326111 4.96556 0.978333 4.31333C1.63167 3.66 2.41667 3.33333 3.33333 3.33333H5V0H8.33333V3.33333H21.6667V0H25V3.33333H26.6667C27.5833 3.33333 28.3683 3.66 29.0217 4.31333C29.6739 4.96556 30 5.75 30 6.66667V30C30 30.9167 29.6739 31.7017 29.0217 32.355C28.3683 33.0072 27.5833 33.3333 26.6667 33.3333H3.33333ZM3.33333 30H26.6667V13.3333H3.33333V30ZM3.33333 10H26.6667V6.66667H3.33333V10ZM3.33333 10V6.66667V10ZM15 20C14.5278 20 14.1322 19.84 13.8133 19.52C13.4933 19.2011 13.3333 18.8056 13.3333 18.3333C13.3333 17.8611 13.4933 17.465 13.8133 17.145C14.1322 16.8261 14.5278 16.6667 15 16.6667C15.4722 16.6667 15.8683 16.8261 16.1883 17.145C16.5072 17.465 16.6667 17.8611 16.6667 18.3333C16.6667 18.8056 16.5072 19.2011 16.1883 19.52C15.8683 19.84 15.4722 20 15 20ZM8.33333 20C7.86111 20 7.465 19.84 7.145 19.52C6.82611 19.2011 6.66667 18.8056 6.66667 18.3333C6.66667 17.8611 6.82611 17.465 7.145 17.145C7.465 16.8261 7.86111 16.6667 8.33333 16.6667C8.80556 16.6667 9.20167 16.8261 9.52167 17.145C9.84056 17.465 10 17.8611 10 18.3333C10 18.8056 9.84056 19.2011 9.52167 19.52C9.20167 19.84 8.80556 20 8.33333 20ZM21.6667 20C21.1944 20 20.7989 19.84 20.48 19.52C20.16 19.2011 20 18.8056 20 18.3333C20 17.8611 20.16 17.465 20.48 17.145C20.7989 16.8261 21.1944 16.6667 21.6667 16.6667C22.1389 16.6667 22.5344 16.8261 22.8533 17.145C23.1733 17.465 23.3333 17.8611 23.3333 18.3333C23.3333 18.8056 23.1733 19.2011 22.8533 19.52C22.5344 19.84 22.1389 20 21.6667 20ZM15 26.6667C14.5278 26.6667 14.1322 26.5067 13.8133 26.1867C13.4933 25.8678 13.3333 25.4722 13.3333 25C13.3333 24.5278 13.4933 24.1322 13.8133 23.8133C14.1322 23.4933 14.5278 23.3333 15 23.3333C15.4722 23.3333 15.8683 23.4933 16.1883 23.8133C16.5072 24.1322 16.6667 24.5278 16.6667 25C16.6667 25.4722 16.5072 25.8678 16.1883 26.1867C15.8683 26.5067 15.4722 26.6667 15 26.6667ZM8.33333 26.6667C7.86111 26.6667 7.465 26.5067 7.145 26.1867C6.82611 25.8678 6.66667 25.4722 6.66667 25C6.66667 24.5278 6.82611 24.1322 7.145 23.8133C7.465 23.4933 7.86111 23.3333 8.33333 23.3333C8.80556 23.3333 9.20167 23.4933 9.52167 23.8133C9.84056 24.1322 10 24.5278 10 25C10 25.4722 9.84056 25.8678 9.52167 26.1867C9.20167 26.5067 8.80556 26.6667 8.33333 26.6667ZM21.6667 26.6667C21.1944 26.6667 20.7989 26.5067 20.48 26.1867C20.16 25.8678 20 25.4722 20 25C20 24.5278 20.16 24.1322 20.48 23.8133C20.7989 23.4933 21.1944 23.3333 21.6667 23.3333C22.1389 23.3333 22.5344 23.4933 22.8533 23.8133C23.1733 24.1322 23.3333 24.5278 23.3333 25C23.3333 25.4722 23.1733 25.8678 22.8533 26.1867C22.5344 26.5067 22.1389 26.6667 21.6667 26.6667Z" fill="#595959"/>
</svg>
