<svg width="150" height="166" viewBox="0 0 150 166" fill="none" xmlns="http://www.w3.org/2000/svg">
<g clip-path="url(#clip0_661_13539)">
<path d="M127.966 42.9743C122.937 34.499 115.715 27.5694 107.059 22.9161C99.7943 18.4184 91.6884 15.4477 83.2249 14.1812C75.348 13.064 68.6574 13.8448 62.7754 16.5702C60.7312 17.5784 58.9113 18.9976 57.4292 20.7393C55.7347 22.6807 55.5958 24.7308 57.0491 26.3651C58.7333 28.2579 60.8328 27.6632 62.8515 26.7399L63.5717 26.4093C65.8213 25.3698 68.1474 24.2955 70.4579 24.0192C74.0119 23.6089 77.5996 23.6727 81.1273 24.2087C88.6806 25.3556 95.9427 28.5168 103.979 34.1601C109.545 38.0684 113.71 42.2965 116.712 47.0855C121.003 53.9294 122.544 60.3599 121.423 66.7447C119.833 75.7899 114.869 80.9177 106.668 81.9857C102.056 82.478 97.4207 82.6694 92.7907 82.5591L92.5713 82.5586C90.3058 82.5541 87.9923 82.3834 85.7546 82.2185C84.1826 82.1027 82.5552 81.9833 80.9485 81.9205C69.9102 81.4889 60.6922 84.013 52.7685 89.636C50.798 90.9835 49.0202 92.5965 47.4852 94.4301C46.33 95.8429 45.4755 97.4773 44.9745 99.2313C44.474 100.985 44.3377 102.82 44.5746 104.622C44.791 106.448 45.6141 107.289 46.2673 107.672L46.2865 107.683C46.7582 107.931 47.2818 108.064 47.8162 108.07C48.3502 108.078 48.8798 107.959 49.3627 107.724C50.247 107.36 51.1369 107.007 52.0284 106.655C54.3823 105.718 56.8156 104.75 59.1291 103.597C66.3619 99.9884 74.3661 98.2536 84.3188 98.1372C90.4244 98.1488 96.5298 97.8455 102.611 97.2286C106.909 96.7418 111.129 95.6817 115.159 94.0757C123.651 90.6307 129.391 84.4149 132.219 75.6001C135.711 64.6962 134.279 53.7209 127.966 42.9743Z" fill="#86E600"/>
<path d="M28.2774 134.29C28.7573 134.673 29.265 135.019 29.7966 135.325C32.3877 136.78 35.3784 137.367 38.3403 137.004C41.3022 136.641 44.0838 135.345 46.2866 133.304C47.8399 131.684 49.0057 129.731 49.6942 127.594C50.3824 125.458 50.5749 123.196 50.2562 120.984C50.0697 119.206 49.4555 117.506 48.4664 116.029C47.4778 114.552 46.1438 113.343 44.5805 112.506C42.5368 111.335 42.12 111.285 37.62 111.333C34.5325 111.298 31.5135 112.32 29.0597 114.231C26.6056 116.143 24.8617 118.83 24.1143 121.852C22.8637 126.907 24.2653 131.092 28.2774 134.29ZM39.2218 118.552C39.2625 118.907 39.3117 119.247 39.3567 119.581C39.5427 120.501 39.5851 121.446 39.4822 122.382C39.2553 123.645 38.6814 124.822 37.8254 125.78C37.3205 126.197 36.6785 126.407 36.0298 126.367C35.1074 126.418 34.2 126.136 33.4723 125.572C33.1296 125.227 32.0882 124.177 33.5871 121.776C35.1902 119.208 36.8503 118.244 39.2249 118.548L39.2218 118.552Z" fill="#86E600"/>
</g>
<defs>
<clipPath id="clip0_661_13539">
<rect width="93.6719" height="137.162" fill="white" transform="translate(68.5811) rotate(30)"/>
</clipPath>
</defs>
</svg>
