<svg width="310" height="170" viewBox="0 0 310 170" fill="none" xmlns="http://www.w3.org/2000/svg">
<path fill-rule="evenodd" clip-rule="evenodd" d="M84.2187 80.0953C83.3974 82.1869 82.6505 84.3605 81.9827 86.6225C81.7391 87.445 83.0795 89.9635 84.9724 92.2453L85.0491 92.3343C75.576 96.6581 66.3512 101.314 57.3836 106.311C44.4308 113.53 32.2705 121.979 21.496 132.062C10.848 142.026 7.84027 144.689 1.48512 157.059C1.30328 157.413 0.623566 157.65 0.525279 158.139C0.431454 158.604 0.619649 159.283 0.88643 159.916C1.22252 160.719 1.72572 161.601 2.35432 162.537C3.0409 163.556 3.95876 164.771 5.21046 166.044C8.72739 169.615 10.6159 170.25 11.375 168.934C12.0278 167.801 11.6176 164.808 12.5147 164.112C27.4526 152.532 42.0015 140.446 57.0106 128.959C79.9883 111.374 105.622 97.5311 132.242 85.0164C162.438 74.8497 194.723 67.5357 228.899 62.8686C251.155 59.8262 274.859 58.814 298.008 57.0232C298.213 57.3254 298.44 57.6361 298.677 57.9505C300.497 60.3416 302.443 61.954 303.019 61.5507C303.602 61.1419 309.329 58.2011 309.739 56.7841C309.973 55.9723 309.18 54.4578 308.816 53.8185C307.815 52.0662 306.491 50.2511 304.702 48.7164C304.356 48.423 303.763 47.9465 303.157 47.7274C302.634 47.5322 301.612 47.4206 300.012 47.5652C274.273 49.8241 247.535 50.6878 222.607 54.0873C211.483 55.6117 200.553 57.4092 189.834 59.5047C202.428 54.0155 214.968 48.4438 227.297 42.5502C227.832 42.3022 227.867 41.8782 227.862 41.7834C227.773 40.4246 226.35 38.4122 225.502 37.2876C225.2 36.8856 222.645 33.5934 221.247 33.5212C220.428 33.4777 215.586 34.6138 213.638 34.9372C204.262 36.4647 204.635 36.6381 195.227 38.4502C174.545 42.4434 154.621 47.4162 134.926 52.784C127.074 54.9251 119.314 57.1898 111.653 59.5911C128.228 45.2196 150.147 37.3208 170.273 28.7597C180.656 24.3441 191.214 20.1616 202.254 16.6353C207.199 15.0564 212.351 13.7604 217.357 12.2659C218.912 11.801 220.553 11.4601 222.13 11.0271C222.316 10.9751 224.669 10.1768 225.025 10.0059C225.959 9.55863 223.896 6.37232 223.813 6.2448C223.424 5.64541 220.506 1.41191 218.801 1.22983C194.168 -1.40243 177.159 7.76917 158.101 12.9912C124.744 22.1304 93.685 34.5236 64.8244 49.7463C52.0588 56.4788 40.5557 64.8431 29.0156 73.2009C23.2523 77.3753 17.5401 81.6507 13.5181 88.0679C13.1151 88.7123 11.8484 89.6946 11.4299 90.4364C11.2176 90.8146 11.2157 91.2861 11.276 91.5848C11.5325 92.8831 12.6095 94.5302 13.4325 95.6594C14.0504 96.5053 16.2964 99.4574 18.1003 99.9395C43.8881 106.846 55.6793 91.7346 71.7598 85.0678C75.8761 83.3611 80.0282 81.705 84.2187 80.0953ZM97.9872 75.0229C95.0475 79.4775 92.5189 84.4053 90.4958 89.8992C101.917 84.8891 113.689 80.3526 125.806 76.2744C144.331 67.5654 163.33 59.4986 182.236 51.2649C168.379 54.3786 154.794 57.8671 141.318 61.5409C126.537 65.5695 112.076 70.0431 97.9872 75.0229ZM148.559 26.4144C121.237 34.938 95.523 45.6994 71.3542 58.4477C58.6118 65.1688 47.1342 73.5172 35.6167 81.859C31.0847 85.1414 26.5763 88.4813 22.9223 92.9042C41.4029 93.7127 51.7644 81.945 65.2852 76.3402C73.8241 72.8002 82.5248 69.4716 91.37 66.3436C104.818 46.1505 126.692 35.6484 148.559 26.4144Z" fill="#232323"/>
</svg>
