<svg width="114" height="114" viewBox="0 0 114 114" fill="none" xmlns="http://www.w3.org/2000/svg">
<path d="M107.198 52.463C108.3 64.9507 104.724 77.4026 97.1618 87.4009C89.599 97.3995 78.5914 104.231 66.2751 106.57C53.9589 108.909 41.213 106.587 30.5121 100.057C19.8112 93.5265 11.9188 83.252 8.3671 71.2297C4.81535 59.207 5.85785 46.2935 11.2922 34.9963C16.7264 23.6991 26.1647 14.8242 37.7747 10.0946C49.3846 5.36518 62.3377 5.11851 74.1194 9.4026C85.9008 13.6867 95.6704 22.1958 101.53 33.2779C104.687 39.2281 106.615 45.7526 107.198 52.463Z" fill="#FFFF29"/>
<path d="M0.570427 54.1809L1.06971 54.2058L0.570427 54.1809C-0.128712 68.1753 4.39716 81.9301 13.2693 92.7758L13.6564 92.4592L13.2694 92.7758C22.1415 103.621 34.7271 110.782 48.5827 112.869C62.4381 114.957 76.5749 111.822 88.2487 104.071C99.9227 96.3221 108.3 84.5112 111.755 70.9321C115.21 57.3531 113.496 42.9747 106.946 30.5881C103.434 23.9262 98.6188 18.039 92.7844 13.277C81.9417 4.40244 68.1875 -0.126333 54.1931 0.569828C40.1986 1.2659 26.9619 7.13734 17.0529 17.0441C7.14387 26.951 1.26966 40.1864 0.570427 54.1809ZM109.386 52.3746L109.399 52.3741L109.386 52.3752C110.533 65.3673 106.812 78.322 98.9438 88.7243L99.3425 89.0259L98.9437 88.7243C91.0765 99.1267 79.6235 106.234 66.8104 108.667C53.9967 111.1 40.7363 108.686 29.6032 101.891C18.4702 95.0973 10.2591 84.4079 6.56388 71.8998C2.8688 59.3916 3.95341 45.9566 9.60717 34.2032C15.2609 22.4497 25.0803 13.2165 37.159 8.29592C49.2378 3.37546 62.714 3.11883 74.9713 7.57593L75.1422 7.10603L74.9713 7.57593C87.229 12.033 97.3921 20.8858 103.49 32.4154L103.49 32.416C106.774 38.6061 108.779 45.3937 109.386 52.3746Z" fill="white" stroke="white"/>
<path d="M38.1143 37.0384C35.443 36.2151 32.5575 36.4496 30.0541 37.6934C27.5508 38.9372 25.621 41.0951 24.6635 43.7213C21.9557 43.0394 19.0894 43.4227 16.6559 44.792C14.2225 46.1614 12.4074 48.4124 11.585 51.0809C11.1634 52.4487 11.0153 53.8863 11.1493 55.3113C11.2832 56.7364 11.6966 58.1212 12.3658 59.3865C13.0349 60.6518 13.9467 61.773 15.0491 62.686C16.1516 63.5989 17.423 64.2858 18.7909 64.7074L37.8535 70.5825C38.0128 70.6316 38.1803 70.6488 38.3463 70.6332C38.5122 70.6176 38.6735 70.5695 38.8209 70.4915C38.9683 70.4136 39.0989 70.3074 39.2052 70.179C39.3115 70.0505 39.3916 69.9025 39.4407 69.7432L45.4874 50.1239L45.4731 50.1195C46.1558 47.4115 45.7731 44.5447 44.4038 42.1107C43.0345 39.6766 40.7831 37.861 38.1143 37.0384Z" fill="#F4564E"/>
<path d="M77.8029 16.0459C75.1315 15.2227 72.246 15.4572 69.7427 16.7009C67.2393 17.9448 65.3095 20.1027 64.352 22.7289C61.6443 22.047 58.7781 22.4302 56.3446 23.7996C53.9112 25.1689 52.096 27.42 51.2735 30.0884C50.8519 31.4563 50.7039 32.8938 50.8379 34.3189C50.9719 35.744 51.3852 37.1287 52.0543 38.3941C52.7235 39.6594 53.6352 40.7806 54.7377 41.6935C55.8401 42.6065 57.1116 43.2934 58.4794 43.715L77.5421 49.59C77.7015 49.6392 77.8688 49.6564 78.0348 49.6408C78.2008 49.6251 78.3622 49.577 78.5093 49.4991C78.657 49.4211 78.7879 49.315 78.8936 49.1865C79.0002 49.0581 79.0806 48.91 79.1292 48.7508L85.1763 29.1315L85.1613 29.127C85.8449 26.419 85.4615 23.5523 84.0925 21.1183C82.7227 18.6842 80.472 16.8686 77.8029 16.0459Z" fill="#F4564E"/>
<path d="M86.0856 57.9141C89.2115 63.8245 89.8614 70.7345 87.8921 77.1237C85.9229 83.513 81.4963 88.8588 75.5856 91.9838C69.6752 95.1097 62.7653 95.7596 56.3759 93.7904C49.9866 91.8211 44.6412 87.3936 41.5156 81.484L86.0856 57.9141Z" fill="#050505"/>
<path d="M76.0187 92.7974C69.8896 96.029 62.7286 96.6985 56.1068 94.6573C49.4849 92.617 43.9429 88.0323 40.6967 81.9105L40.2637 81.0923L86.4717 56.6562L86.9046 57.4752C90.1371 63.6043 90.8066 70.7653 88.7654 77.3871C86.7251 84.0088 82.1405 89.5509 76.0187 92.7974ZM42.7831 81.8553C45.9285 87.2908 51.0572 91.2967 57.0927 93.0312C63.1283 94.7658 69.6012 94.0953 75.1526 91.1592C80.7042 88.224 84.9026 83.2514 86.8663 77.2865C88.8299 71.3215 88.4063 64.8278 85.6844 59.1684L42.7831 81.8553Z" fill="#050505"/>
<path d="M68.3464 78.3821C65.6519 79.8075 63.4678 82.0357 62.097 84.7587C60.7261 87.4816 60.2366 90.5635 60.6963 93.5763C65.7153 94.4665 70.8879 93.653 75.3911 91.2648C79.7765 88.9543 83.2914 85.2804 85.4066 80.7977C83.1802 78.6489 80.332 77.2586 77.268 76.8247C74.2043 76.3909 71.0819 76.936 68.3464 78.3821Z" fill="#F4564E"/>
</svg>
