<svg width="158" height="96" viewBox="0 0 158 96" fill="none" xmlns="http://www.w3.org/2000/svg">
<path fill-rule="evenodd" clip-rule="evenodd" d="M54.5227 54.0961C53.6887 54.8762 52.8679 55.6656 52.0608 56.4652C51.767 56.7561 51.7652 57.2299 52.0556 57.5237L52.0681 57.5345C46.998 60.7009 41.9583 63.9156 36.9512 67.179C29.7183 71.8935 22.5439 76.8117 15.5905 81.9342C8.7189 86.9964 6.81259 88.3819 1.23557 93.2948C1.07606 93.4353 0.729094 93.6409 0.57435 93.8047C0.427154 93.9603 0.352271 94.1225 0.321606 94.2557C0.281655 94.4251 0.295676 94.5842 0.351213 94.7341C0.412542 94.897 0.528275 95.0715 0.774514 95.1962C1.46748 95.5452 2.13441 95.3546 2.76349 94.8154C3.3047 94.3513 3.81582 93.5518 4.36177 93.1676C13.4509 86.7722 22.4886 80.3058 31.587 73.9235C45.5156 64.1531 59.7275 54.9539 74.0588 45.9487C89.3895 36.9204 104.964 28.3148 120.744 20.1108C131.02 14.7673 141.454 9.73229 151.828 4.57886C151.847 4.62689 151.872 4.67321 151.902 4.71834C152.136 5.05882 152.603 5.14474 152.944 4.91091C153.289 4.67397 156.429 2.6635 156.931 2.16438C157.218 1.87846 157.225 1.59092 157.215 1.47544C157.187 1.1594 157.034 0.889484 156.617 0.794894C156.535 0.777658 156.39 0.755917 156.179 0.812353C155.999 0.859439 155.585 1.03076 154.863 1.39307C143.267 7.20202 131.562 12.7994 120.053 18.7822C114.916 21.4541 109.799 24.1675 104.705 26.9267C111.386 22.7934 118.063 18.6466 124.722 14.4473C125.01 14.2673 125.122 14.1354 125.142 14.1086C125.416 13.7261 125.266 13.4178 125.159 13.2562C125.122 13.1981 124.778 12.7392 124.193 12.9972C123.851 13.1481 121.506 14.4504 120.594 14.9348C116.207 17.2583 116.328 17.2348 111.863 19.6485C102.045 24.9575 92.3283 30.4035 82.6194 35.92C78.7485 38.1196 74.8886 40.3373 71.0398 42.5755C81.4748 35.0309 92.7226 28.3245 103.351 21.7814C108.833 18.4062 114.338 15.0646 119.899 11.8199C122.39 10.3669 124.905 8.95556 127.403 7.515C128.179 7.06733 128.963 6.63896 129.741 6.1964C129.834 6.14383 131.029 5.43863 131.222 5.31708C131.727 4.99879 131.571 4.47267 131.564 4.45171C131.535 4.35289 131.251 3.6894 130.56 3.97647C120.564 8.12379 111.137 14.2237 101.735 19.5701C85.2806 28.9273 69.0669 38.7838 53.1493 49.0342C46.1088 53.5679 39.2367 58.3299 32.3502 63.0973C28.9109 65.4784 25.4704 67.8789 22.2651 70.5725C21.9436 70.8428 21.1728 71.3852 20.8223 71.6873C20.644 71.8411 20.5349 71.9803 20.4922 72.0562C20.3043 72.3873 20.3893 72.6572 20.4841 72.8253C20.5556 72.9509 20.844 73.3714 21.5095 73.153C31.0205 70.0335 39.5667 63.227 48.0186 58.0503C50.1822 56.7251 52.3495 55.4076 54.5227 54.0961ZM61.6134 49.8509C59.3248 51.7502 57.1045 53.7068 54.9716 55.729C61.0378 51.9711 67.1461 48.2827 73.2975 44.6604C83.2708 38.3936 93.3005 32.2213 103.328 26.0184C96.6496 29.7045 90.0016 33.4467 83.3584 37.2215C76.0718 41.3617 68.8205 45.569 61.6134 49.8509ZM94.5448 25.43C80.8287 33.3999 67.2901 41.7078 53.9602 50.2918C46.9323 54.8175 40.0748 59.5697 33.2017 64.3279C30.4972 66.2002 27.7897 68.0848 25.201 70.1175C32.9683 66.6625 40.1311 61.1264 47.2375 56.7739C51.7255 54.025 56.2346 51.306 60.7598 48.6173C71.1866 39.9831 83.0129 32.5191 94.5448 25.43Z" fill="#333333"/>
</svg>
