<svg width="169" height="215" viewBox="0 0 169 215" fill="none" xmlns="http://www.w3.org/2000/svg">
<path d="M11.1842 146.329L81.6762 172.285L122.854 91.0264L33.7295 58.2074L11.1842 146.329Z" fill="#B5D0E5"/>
<path d="M37.2035 48.25C35.8531 47.7583 34.3801 47.719 33.0038 48.1379C31.6274 48.5569 30.4213 49.4117 29.5651 50.5752L29.467 50.7094C29.3065 50.9293 29.1988 51.1837 29.1527 51.4525C29.1065 51.7213 29.1231 51.997 29.2011 52.258C29.2791 52.5189 29.4164 52.7578 29.602 52.956C29.7877 53.1542 30.0166 53.306 30.2709 53.3997L129.383 89.8966C129.633 89.9887 129.9 90.0218 130.165 89.994C130.429 89.9661 130.684 89.8777 130.911 89.7358C131.136 89.5938 131.327 89.4018 131.468 89.1746C131.609 88.9473 131.697 88.6907 131.725 88.4244C131.879 86.9462 131.539 85.4594 130.759 84.1996C129.978 82.9397 128.802 81.979 127.417 81.4697L37.2035 48.25Z" fill="#B5D0E5"/>
<path d="M94.3567 65.7652L99.3186 67.5924L118.18 37.738C120.322 34.3263 123.431 31.6383 127.104 30.0223C130.778 28.4063 134.847 27.9369 138.783 28.6748L163.163 33.1702L164.214 27.983L139.96 22.6354C135.429 21.6528 130.706 22.0747 126.411 23.8455C122.117 25.6162 118.453 28.6529 115.901 32.5558L94.3567 65.7652Z" fill="white"/>
<path d="M8.50787 176.078C8.66337 177.067 9.07922 177.994 9.71213 178.765C10.3452 179.535 11.1721 180.121 12.1071 180.46L59.1414 197.78C60.0732 198.12 61.0782 198.205 62.0546 198.027C63.0309 197.85 63.9439 197.417 64.7013 196.771L8.50787 176.078Z" fill="#7F551D"/>
<path d="M7.55619 172.197L68.0752 194.485L77.7202 174.366L13.1602 150.594L7.55619 172.197Z" fill="#7F551D"/>
<path d="M11.1852 146.328L81.6767 172.287L116.297 103.966C111.61 104.735 106.859 105.029 102.116 104.841C88.3657 104.346 75.027 100.039 63.5709 92.394C41.8906 77.9207 31.6809 77.1587 28.8408 77.3177L11.1852 146.328Z" fill="#7F551D"/>
<path d="M83.2812 176.413L7.25159 148.416L31.4479 53.8382L127.475 89.1992L83.2812 176.413ZM11.1849 146.331L81.6763 172.289L122.853 91.0299L33.7292 58.2109L11.1849 146.331Z" fill="#050505"/>
<path d="M69.7413 198.626L3.61312 174.275L10.8901 146.22L82.2664 172.504L69.7413 198.626ZM7.55581 172.194L68.0748 194.48L77.7205 174.363L13.1599 150.589L7.55581 172.194Z" fill="#050505"/>
<path d="M58.0034 200.891L10.9691 183.57C8.96968 182.845 7.29853 181.418 6.26198 179.551C5.22543 177.685 4.89297 175.503 5.32561 173.405L5.70726 171.511L70.0974 195.223L68.2431 197.767C67.0968 199.328 65.4803 200.476 63.635 201.039C61.7896 201.602 59.8142 201.55 58.0034 200.891ZM8.50787 176.075C8.66338 177.064 9.0794 177.991 9.7123 178.762C10.3452 179.533 11.1723 180.117 12.1071 180.457L59.1415 197.776C60.0733 198.116 61.0783 198.202 62.0546 198.024C63.0309 197.847 63.9439 197.414 64.7013 196.768L8.50787 176.075Z" fill="#050505"/>
<path d="M128.245 93.0154L29.1325 56.5184C28.3987 56.2482 27.7378 55.8099 27.202 55.238C26.6662 54.666 26.2702 53.9763 26.0453 53.2231C25.8204 52.47 25.7729 51.6741 25.9063 50.8984C26.0398 50.1228 26.3507 49.3887 26.8143 48.754L26.9123 48.6202C28.1934 46.8796 29.998 45.6006 32.0574 44.9738C34.1168 44.347 36.3207 44.4057 38.3413 45.1414L128.554 78.3612C130.628 79.1233 132.388 80.5607 133.556 82.4458C134.724 84.3309 135.233 86.5557 135.001 88.7676C134.921 89.536 134.668 90.2764 134.26 90.932C133.853 91.5878 133.303 92.1417 132.651 92.5514C132 92.9611 131.264 93.216 130.501 93.2963C129.737 93.3768 128.966 93.2807 128.245 93.0154ZM37.2031 48.2551C35.8528 47.7634 34.3798 47.7241 33.0035 48.143C31.6271 48.562 30.421 49.4168 29.5648 50.5801L29.4667 50.7144C29.3062 50.9344 29.1985 51.1888 29.1524 51.4575C29.1062 51.7263 29.1228 52.0021 29.2008 52.263C29.2787 52.524 29.416 52.7629 29.6017 52.9611C29.7874 53.1592 30.0163 53.3111 30.2706 53.4047L129.383 89.9017C129.633 89.9937 129.9 90.0269 130.165 89.9991C130.429 89.9711 130.684 89.8828 130.911 89.741C131.136 89.5988 131.327 89.4069 131.468 89.1798C131.609 88.9524 131.697 88.6958 131.725 88.4295C131.879 86.9512 131.539 85.4644 130.759 84.2046C129.978 82.9448 128.802 81.9842 127.415 81.4747L37.2031 48.2551Z" fill="#050505"/>
<path d="M100.672 71.6258L89.3348 67.451L113.145 30.7501C116.064 26.2844 120.256 22.8098 125.17 20.7836C130.083 18.7575 135.488 18.2748 140.673 19.399L165.077 24.7797C165.879 24.9606 166.578 25.4493 167.025 26.1421C167.473 26.835 167.634 27.6769 167.473 28.4884L166.359 33.9805C166.192 34.7899 165.716 35.5019 165.036 35.9655C164.355 36.4288 163.521 36.6067 162.713 36.4617L138.183 31.9379C134.892 31.3212 131.491 31.7137 128.42 33.0647C125.349 34.4157 122.75 36.6627 120.959 39.5147L100.672 71.6258ZM94.3571 65.7676L99.3191 67.5948L118.181 37.7402C120.322 34.3286 123.431 31.6405 127.105 30.0247C130.778 28.4087 134.847 27.9392 138.784 28.6772L163.163 33.1725L164.214 27.9854L139.961 22.6377C135.43 21.6552 130.706 22.077 126.412 23.8478C122.117 25.6186 118.453 28.6552 115.902 32.5581L94.3571 65.7676Z" fill="#050505"/>
<path d="M83.2814 176.413L7.2518 148.416L26.1516 74.5411L27.0164 74.2597C28.0726 73.9159 38.1236 71.4262 65.3961 89.6333C73.1782 94.8419 81.9126 98.444 91.0943 100.231C100.276 102.018 109.723 101.955 118.888 100.044L122.485 99.0468L120.791 102.393L83.2814 176.413ZM11.1849 146.332L81.6765 172.289L116.297 103.969C111.61 104.739 106.859 105.032 102.115 104.844C88.3654 104.349 75.0268 100.042 63.5706 92.3971C41.8903 77.9238 31.6806 77.1618 28.8405 77.3209L11.1849 146.332Z" fill="#050505"/>
<path d="M30.1167 125.908L34.2716 104.533L54.3079 110.314L49.8573 131.06L30.1167 125.908ZM36.8136 108.717L33.9439 123.481L47.3633 126.983L50.4382 112.648L36.8136 108.717Z" fill="#050505"/>
<path d="M73.7612 161.322L53.1617 153.737L60.7448 132.99L81.3443 140.576L73.7612 161.322ZM57.3913 151.761L71.8076 157.071L77.1146 142.551L62.6985 137.241L57.3913 151.761Z" fill="#050505"/>
<path d="M87.8093 129.43L66.0123 126.869L68.6057 104.928L90.4028 107.489L87.8093 129.43ZM69.6728 123.961L84.9272 125.754L86.7423 110.398L71.4879 108.605L69.6728 123.961Z" fill="#050505"/>
</svg>
