<svg width="165" height="157" viewBox="0 0 165 157" fill="none" xmlns="http://www.w3.org/2000/svg">
<path d="M145.311 43.9533C145.499 44.3306 145.688 44.7079 145.876 45.0852L145.311 43.9533Z" fill="#E2EBFF"/>
<path d="M153.863 40.5437C160.647 52.1287 164.638 65.9109 164.638 80.0925C164.638 97.4701 158.851 113.849 149.074 126.632C143.687 133.623 137.302 139.815 129.72 144.609C117.748 152.599 103.183 156.993 87.8188 156.993C45.5186 157.193 11 122.638 11 80.0925C11 37.5475 45.3191 2.99219 87.8188 2.99219C103.183 2.99219 117.549 7.38651 129.72 15.3762C137.103 20.17 143.687 26.362 149.074 33.353C150.471 35.3504 151.868 37.3478 153.065 39.3452" fill="url(#paint0_linear_661_13257)"/>
<path d="M72.1174 9.96453C73.4379 9.96453 74.5697 9.02033 74.5697 7.50961C74.5697 6.18773 73.6265 5.05469 72.1174 5.05469C70.7969 5.05469 69.665 5.99889 69.665 7.50961C69.8537 9.02033 70.9855 9.96453 72.1174 9.96453Z" fill="#5128F9" fill-opacity="0.2"/>
<path d="M112.865 14.4956C113.808 14.4956 114.751 13.7402 114.751 12.6072C114.751 11.4741 113.997 10.7188 112.865 10.7188C111.922 10.7188 110.979 11.4741 110.979 12.6072C110.979 13.7402 111.922 14.4956 112.865 14.4956Z" fill="#5128F9" fill-opacity="0.2"/>
<path d="M61.3657 51.3156L59.668 48.6719" stroke="#8E73FF" stroke-width="1.5" stroke-miterlimit="10" stroke-linecap="round" stroke-linejoin="round"/>
<path d="M51.7441 51.8906L64.1945 70.5858L74.9471 73.2296L62.874 53.779" stroke="#8E73FF" stroke-width="1.5" stroke-miterlimit="10" stroke-linecap="round" stroke-linejoin="round"/>
<path d="M45.8967 88.7138H45.3307C44.9534 88.7138 44.5762 88.3362 44.5762 87.9585C44.5762 87.5808 44.7648 87.2031 45.3307 87.2031H45.8967C46.2739 87.2031 46.6512 87.5808 46.6512 87.9585C46.6512 88.525 46.2739 88.7138 45.8967 88.7138Z" fill="#2D5887"/>
<path d="M45.8967 91.917H45.3307C44.9534 91.917 44.5762 91.5393 44.5762 91.1616C44.5762 90.7839 44.7648 90.4062 45.3307 90.4062H45.8967C46.2739 90.4062 46.6512 90.7839 46.6512 91.1616C46.6512 91.5393 46.2739 91.917 45.8967 91.917Z" fill="#2D5887"/>
<path d="M45.8967 94.9404H45.3307C44.9534 94.9404 44.5762 94.5627 44.5762 94.185C44.5762 93.8074 44.7648 93.4297 45.3307 93.4297H45.8967C46.2739 93.4297 46.6512 93.8074 46.6512 94.185C46.6512 94.5627 46.2739 94.9404 45.8967 94.9404Z" fill="#2D5887"/>
<path d="M45.8967 97.9638H45.3307C44.9534 97.9638 44.5762 97.5862 44.5762 97.2085C44.5762 96.8308 44.7648 96.4531 45.3307 96.4531H45.8967C46.2739 96.4531 46.6512 96.8308 46.6512 97.2085C46.6512 97.775 46.2739 97.9638 45.8967 97.9638Z" fill="#2D5887"/>
<path d="M76.456 88.7138H66.0807C65.7034 88.7138 65.3262 88.3362 65.3262 87.9585C65.3262 87.5808 65.5148 87.2031 66.0807 87.2031H76.456C76.8333 87.2031 77.2106 87.5808 77.2106 87.9585C77.2106 88.3362 76.8333 88.7138 76.456 88.7138Z" fill="white"/>
<path d="M76.4572 91.542H61.3659C60.9886 91.542 60.6113 91.1643 60.6113 90.7866C60.6113 90.4089 60.8 90.0312 61.3659 90.0312H76.4572C76.8345 90.0312 77.2118 90.4089 77.2118 90.7866C77.2118 91.3531 76.8345 91.542 76.4572 91.542Z" fill="#2D5887"/>
<path d="M88.5303 94.9404H61.3659C60.9886 94.9404 60.6113 94.5627 60.6113 94.185C60.6113 93.8074 60.8 93.4297 61.3659 93.4297H88.3416C88.7189 93.4297 89.0962 93.8074 89.0962 94.185C89.0962 94.3739 88.7189 94.9404 88.5303 94.9404Z" fill="#2D5887"/>
<path d="M100.037 94.9404H90.6051C90.2279 94.9404 89.8506 94.5627 89.8506 94.185C89.8506 93.8074 90.0392 93.4297 90.6051 93.4297H100.037C100.415 93.4297 100.792 93.8074 100.792 94.185C100.792 94.3739 100.415 94.9404 100.037 94.9404Z" fill="white"/>
<path d="M112.864 87.0078V137.428H41.1801C38.3505 137.428 36.2754 135.162 36.2754 132.518V87.0078H112.864Z" fill="#5128F9"/>
<path d="M140.03 87.0078V132.518C140.03 135.351 137.766 137.428 135.125 137.428H112.865V87.0078H140.03Z" fill="#DAE1ED"/>
<path d="M140.03 87.0078V132.518C140.03 135.351 137.766 137.428 135.125 137.428H112.865V87.0078H140.03Z" fill="#8466FF"/>
<path d="M64.1953 87.3849L79.098 63.9688H156.064L140.595 87.3849H64.1953Z" fill="#A697E2"/>
<path d="M140.029 87.0078H112.676L126.447 108.347C127.39 109.669 129.088 110.613 130.597 110.613H151.913C153.422 110.613 154.366 108.913 153.422 107.78L140.029 87.0078Z" fill="#D7CDFF"/>
<path d="M112.865 87.3863L97.7736 63.7812H20.6191L36.0878 87.1974H112.865V87.3863Z" fill="#D7CDFF"/>
<path d="M36.2754 88.7109V103.629" stroke="#182052" stroke-miterlimit="10" stroke-linecap="round" stroke-linejoin="round"/>
<path d="M94.1894 63.7812H79.2867H20.6191L31.1831 79.6438" stroke="#182052" stroke-miterlimit="10" stroke-linecap="round" stroke-linejoin="round"/>
<path d="M140.784 87.3863L156.253 63.7812H112.865" stroke="#182052" stroke-miterlimit="10" stroke-linecap="round" stroke-linejoin="round"/>
<path d="M36.2754 128.368V132.522C36.2754 135.166 38.3505 137.432 41.1801 137.432H112.675H112.864H135.124C137.765 137.432 140.028 135.355 140.028 132.522V119.492" stroke="#182052" stroke-miterlimit="10" stroke-linecap="round" stroke-linejoin="round"/>
<path d="M74.9475 115.902H44.7648C44.0103 115.902 43.4443 115.335 43.4443 114.58C43.4443 113.824 44.0103 113.258 44.7648 113.258H74.9475C75.702 113.258 76.268 113.824 76.268 114.58C76.0793 115.335 75.5134 115.902 74.9475 115.902Z" fill="#8466FF"/>
<path d="M74.9475 122.136H44.7648C44.0103 122.136 43.4443 121.569 43.4443 120.814C43.4443 120.059 44.0103 119.492 44.7648 119.492H74.9475C75.702 119.492 76.268 120.059 76.268 120.814C76.0793 121.569 75.5134 122.136 74.9475 122.136Z" fill="#8466FF"/>
<path d="M58.5358 128.363H44.5764C43.8218 128.363 43.2559 127.796 43.2559 127.041C43.2559 126.285 43.8218 125.719 44.5764 125.719H58.5358C59.2904 125.719 59.8563 126.285 59.8563 127.041C59.6677 127.607 59.1018 128.363 58.5358 128.363Z" fill="#8466FF"/>
<path d="M147.952 9.96094L153.8 11.2828C155.875 11.6605 157.384 13.1712 157.95 15.4373L160.591 26.39C160.968 27.5231 160.779 28.6561 159.836 29.4115L146.065 43.1968" fill="white"/>
<path d="M142.858 46.2198L159.458 29.6019C160.213 28.8465 160.59 27.7135 160.213 26.5804L157.572 15.6277C157.195 13.7393 155.497 12.0398 153.422 11.4732L142.481 9.01831C141.349 8.64063 140.217 8.82947 139.462 9.77367L118.146 31.4903C117.391 32.2456 117.391 33.7564 118.146 34.5117L129.464 45.8421C133.237 49.4301 139.085 49.4301 143.235 46.2198" fill="#5228F9"/>
<path d="M152.857 21.2905C154.177 19.9687 154.177 17.8914 152.857 16.5695C151.536 15.2477 149.461 15.2477 148.141 16.5695C146.82 17.8914 146.82 19.9687 148.141 21.2905C149.65 22.4236 151.536 22.4236 152.857 21.2905Z" fill="#090113"/>
<path d="M137.011 48.488C134.747 48.488 132.483 47.9215 130.597 46.5996C130.219 46.2219 129.842 46.0331 129.465 45.8442H129.653C131.729 45.8442 133.992 45.2777 135.501 44.3335C136.256 43.767 137.576 43.767 138.142 44.5223C140.029 45.4665 141.727 46.0331 143.424 46.0331C143.047 46.4108 142.67 46.5996 142.292 46.7884C140.783 47.9215 138.897 48.488 137.011 48.488Z" fill="#4271FF"/>
<path d="M134.559 48.1086C137.577 48.6751 140.784 47.9197 143.236 46.0313" stroke="#182052" stroke-miterlimit="10" stroke-linecap="round" stroke-linejoin="round"/>
<path d="M142.858 46.2198L159.458 29.6019C160.213 28.8465 160.59 27.7135 160.213 26.5804L157.572 15.6277C157.195 13.7393 155.497 12.0398 153.422 11.4732L142.481 9.01831C141.349 8.64063 140.217 8.82947 139.462 9.77367L118.146 31.4903C117.391 32.2457 117.391 33.7564 118.146 34.5117L127.389 43.7649" stroke="white" stroke-miterlimit="10" stroke-linecap="round" stroke-linejoin="round"/>
<path d="M63.8172 21.2925C62.4967 19.4041 61.9308 17.7045 62.3081 15.4385C62.6854 12.417 62.4967 12.2282 59.6671 10.9063C57.592 9.9621 56.0829 8.45137 55.3283 6.56297C54.0078 3.73037 53.8192 3.54153 50.8009 3.91921C48.7259 4.10805 46.6508 3.73037 44.953 2.40849C42.3121 0.520087 42.312 0.520087 39.4824 2.40849C37.7846 3.73037 35.8983 4.29689 33.6346 3.91921C30.6163 3.54153 30.4276 3.73037 28.9185 6.37413C27.9753 8.45137 26.4662 9.9621 24.3911 10.9063C21.5615 12.2282 21.3728 12.2282 21.7501 15.4385C21.9388 17.7045 21.5615 19.5929 20.241 21.2925C18.3546 23.9363 18.3546 23.9363 20.241 26.58C21.5615 28.4684 22.1274 30.168 21.7501 32.4341C21.3728 35.4555 21.5615 35.6444 24.3911 36.9662C26.4662 37.9104 27.9753 39.4212 28.9185 41.4984C30.239 44.331 30.4276 44.5198 33.4459 43.9533C35.521 43.5756 37.596 44.331 39.2938 45.464C41.9348 47.3524 42.1234 47.3524 44.7644 45.464C45.3303 45.0864 45.7076 44.7087 46.2735 44.7087C46.8395 44.331 47.594 44.1422 48.16 44.1422C48.9145 43.9533 49.6691 43.9533 50.6123 44.1422C50.9896 44.1422 51.3669 44.1422 51.9328 44.331C53.4419 44.7087 54.3851 43.9533 54.9511 42.6314C55.1397 42.2538 55.1397 41.8761 55.517 41.6872C56.2715 39.61 57.9693 38.0993 59.8557 37.3439C62.6853 36.022 62.874 36.022 62.4967 32.8118C62.3081 32.0564 62.3081 31.1122 62.6853 30.3568C62.874 29.6015 62.874 29.035 63.2513 28.4684C63.4399 27.9019 63.8172 27.5242 64.0058 26.9577C65.7036 24.1251 65.7036 24.1251 63.8172 21.2925Z" fill="#A92ECF"/>
<path d="M32.3148 3.7356C30.9943 3.54696 30.4284 3.73561 29.6738 4.86746" stroke="#182052" stroke-miterlimit="10" stroke-linecap="round" stroke-linejoin="round"/>
<path d="M46.2747 45.0902C46.8406 44.7125 47.5952 44.5236 48.1611 44.5236C48.9157 44.3348 49.6702 44.3348 50.6134 44.5236C50.9907 44.5236 51.368 44.5236 51.9339 44.7125C53.4431 45.0902 54.3863 44.3348 54.9522 43.0129C55.1408 42.6352 55.1408 42.2576 55.5181 42.0687C56.2727 39.9915 57.9704 38.4808 59.8569 37.7254C62.6865 36.4035 62.8751 36.4035 62.4979 33.1932C62.3092 32.4379 62.3092 31.4937 62.6865 30.7383C62.8751 29.9829 62.8751 29.4164 63.2524 28.8499C63.4411 28.2834 63.8183 27.9057 64.007 27.3392C65.7047 24.6954 65.7048 24.5066 63.8184 21.8628C62.4979 19.9744 61.9319 18.2749 62.3092 16.0088C62.6865 12.9873 62.4979 12.7985 59.6682 11.4766C57.5932 10.5324 56.084 9.02169 55.3295 7.13328C54.009 4.30068 53.8203 4.11184 50.8021 4.48952C48.727 4.67836 46.652 4.30068 44.9542 2.9788C42.3132 1.0904 42.3132 1.0904 39.4836 2.9788C38.729 3.54532 37.9745 3.923 37.0312 4.30068" stroke="#182052" stroke-miterlimit="10" stroke-linecap="round" stroke-linejoin="round"/>
<path d="M24.3911 10.9063C21.5615 12.2282 21.3728 12.2282 21.7501 15.4385C21.9388 17.7046 21.5615 19.593 20.241 21.2925C18.3546 23.9363 18.3546 23.9363 20.241 26.58C21.5615 28.4684 22.1274 30.168 21.7501 32.4341C21.3728 35.4555 21.5615 35.6444 24.3911 36.9663C26.4662 37.9105 27.9753 39.4212 28.9185 41.4984C30.239 44.331 30.4276 44.5199 33.4459 43.9533C34.955 43.7645 36.4642 43.9533 37.7847 44.7087" stroke="#182052" stroke-miterlimit="10" stroke-linecap="round" stroke-linejoin="round"/>
<path d="M38.7278 21.288C40.4256 19.5884 40.4256 16.7558 38.7278 15.0563C37.9733 14.3009 36.6528 13.7344 35.7095 13.7344C34.5777 13.7344 33.4459 14.1121 32.6913 15.0563C30.9935 16.7558 30.9935 19.5884 32.6913 21.288C33.4459 22.0433 34.7663 22.6099 35.7095 22.6099C37.03 22.421 37.9733 22.0433 38.7278 21.288ZM35.7095 16.3781C36.6528 16.3781 37.4073 17.1335 37.4073 18.0777C37.4073 19.0219 36.6528 19.7773 35.7095 19.7773C34.7663 19.7773 34.0118 19.0219 34.0118 18.0777C34.0118 17.3223 34.7663 16.3781 35.7095 16.3781Z" fill="white"/>
<path d="M51.5553 27.525C50.8007 26.7696 49.4802 26.2031 48.537 26.2031C47.4052 26.2031 46.2733 26.5808 45.5188 27.525C44.7642 28.4692 44.1982 29.4134 44.1982 30.5464C44.1982 31.6795 44.5755 32.8125 45.5188 33.5679C46.462 34.3233 47.5938 34.8898 48.537 34.8898C49.6689 34.8898 50.8007 34.5121 51.5553 33.5679C52.3098 32.8125 52.8758 31.6795 52.8758 30.5464C52.8758 29.4134 52.3098 28.4692 51.5553 27.525ZM48.3484 32.4348C47.4052 32.4348 46.6506 31.6795 46.6506 30.7353C46.6506 29.7911 47.4052 29.0357 48.3484 29.0357C49.2916 29.0357 50.0461 29.7911 50.0461 30.7353C50.0461 31.6795 49.4802 32.4348 48.3484 32.4348Z" fill="white"/>
<path d="M50.6125 15.8152C50.4239 15.6263 49.8579 15.4375 49.4806 15.4375C49.1034 15.4375 48.7261 15.6263 48.3488 15.8152L34.012 30.167C33.8234 30.5447 33.6348 30.9224 33.6348 31.3001C33.6348 31.6778 33.8234 32.0554 34.012 32.4331C34.2007 32.8108 34.7666 32.8108 35.1439 32.8108C35.5212 32.8108 35.8985 32.622 36.2757 32.4331L50.6125 18.2701C51.1784 17.5147 51.1784 16.5705 50.6125 15.8152Z" fill="white"/>
<path d="M8.16839 32.0587L1 24.8828" stroke="#8E73FF" stroke-width="1.5" stroke-miterlimit="10" stroke-linecap="round" stroke-linejoin="round"/>
<path d="M26.6547 50.3715L11.752 35.4531" stroke="#8E73FF" stroke-width="1.5" stroke-miterlimit="10" stroke-linecap="round" stroke-linejoin="round"/>
<path d="M108.902 34.8884L114.75 26.3906" stroke="#8E73FF" stroke-width="1.5" stroke-miterlimit="10" stroke-linecap="round" stroke-linejoin="round"/>
<path d="M112.864 54.1527L118.524 45.8438" stroke="#8E73FF" stroke-width="1.5" stroke-miterlimit="10" stroke-linecap="round" stroke-linejoin="round"/>
<path d="M116.449 61.8949L122.108 53.5859" stroke="#8E73FF" stroke-width="1.5" stroke-miterlimit="10" stroke-linecap="round" stroke-linejoin="round"/>
<path d="M94.1895 56.6077L105.885 39.2344" stroke="#8E73FF" stroke-width="1.5" stroke-miterlimit="10" stroke-linecap="round" stroke-linejoin="round"/>
<path d="M78.9094 13.9317L78.7207 3.73438" stroke="#8E73FF" stroke-width="1.5" stroke-miterlimit="10" stroke-linecap="round" stroke-linejoin="round"/>
<path d="M79.4748 40.3675L79.2861 19.4062" stroke="#8E73FF" stroke-width="1.5" stroke-miterlimit="10" stroke-linecap="round" stroke-linejoin="round"/>
<path d="M96.8301 33.193L101.169 12.6094" stroke="#8E73FF" stroke-width="1.5" stroke-miterlimit="10" stroke-linecap="round" stroke-linejoin="round"/>
<path d="M94.7549 42.6353L95.8867 36.7812" stroke="#8E73FF" stroke-width="1.5" stroke-miterlimit="10" stroke-linecap="round" stroke-linejoin="round"/>
<path d="M29.1076 60.7619L8.73438 40.3672" stroke="#8E73FF" stroke-width="1.5" stroke-miterlimit="10" stroke-linecap="round" stroke-linejoin="round"/>
<path d="M78.9082 55.2871C79.6627 55.2871 80.4173 54.5317 80.4173 53.7763C80.4173 53.021 79.6627 52.2656 78.9082 52.2656C78.1536 52.2656 77.399 53.021 77.399 53.7763C77.2104 54.7205 77.7763 55.2871 78.9082 55.2871Z" fill="#5128F9" fill-opacity="0.2"/>
<path d="M7.60241 59.4409C8.73426 59.4409 9.67748 58.6855 9.67748 57.5525C9.67748 56.4194 8.9229 55.6641 7.60241 55.6641C6.47056 55.6641 5.52734 56.6083 5.52734 57.5525C5.52734 58.4967 6.47056 59.4409 7.60241 59.4409Z" fill="#5128F9" fill-opacity="0.2"/>
<path d="M107.772 57.5476C108.715 57.5476 109.469 56.7922 109.469 55.848C109.469 54.9038 108.715 54.1484 107.772 54.1484C106.828 54.1484 106.074 54.9038 106.074 55.848C105.885 56.7922 106.64 57.5476 107.772 57.5476Z" fill="#5128F9" fill-opacity="0.2"/>
<path d="M157.761 47.9174C158.705 47.9174 159.648 47.1621 159.648 46.029C159.648 44.896 158.893 44.1406 157.761 44.1406C156.818 44.1406 155.875 44.896 155.875 46.029C155.875 46.9732 156.63 47.9174 157.761 47.9174Z" fill="#5128F9" fill-opacity="0.2"/>
<path d="M140.029 87.0078H112.676L126.447 108.347C127.39 109.669 129.088 110.613 130.597 110.613H151.913C153.422 110.613 154.366 108.913 153.422 107.78L140.029 87.0078Z" stroke="#8466FF" stroke-miterlimit="10" stroke-linecap="round" stroke-linejoin="round"/>
<path d="M108.526 80.7769L97.7736 63.7812H20.6191L29.2967 77.0001" stroke="#8466FF" stroke-miterlimit="10" stroke-linecap="round" stroke-linejoin="round"/>
<path d="M36.2754 87.3906H112.864" stroke="#8466FF" stroke-miterlimit="10" stroke-linecap="round" stroke-linejoin="round"/>
<path d="M161.873 18.0246C161.118 18.78 160.364 19.3465 159.232 19.913C159.043 19.913 159.043 20.1019 159.043 20.1019L158.477 17.8358C159.043 17.4581 159.609 17.0804 160.175 16.5139C161.495 15.192 162.439 13.4925 162.816 11.7929C163.005 10.2822 162.627 8.77147 161.873 8.01611C159.798 6.12771 156.025 6.69423 153.195 9.52683L152.441 10.2822C151.497 11.6041 150.743 12.926 150.366 14.4367V14.6255C150.177 15.9474 150.554 17.2693 151.309 18.2135C151.497 18.4023 151.875 18.78 152.252 18.9688C152.441 19.1577 152.441 19.1577 152.629 19.1577L152.818 19.3465C152.629 19.7242 152.441 20.1019 152.063 20.2907C151.686 20.4796 151.497 20.6684 151.12 21.0461C150.554 20.8572 149.988 20.2907 149.422 19.913C148.291 18.78 147.725 17.2693 147.725 15.5697C147.725 15.192 147.725 14.8144 147.913 14.2478C148.102 12.926 148.668 11.2264 149.611 10.0934C149.988 9.52683 150.366 8.96031 151.12 8.39379C154.704 4.80583 159.986 4.05047 162.816 6.88307C166.211 8.96031 165.457 14.4367 161.873 18.0246Z" fill="#4271FF"/>
<path d="M151.912 55.2858C150.592 56.6077 148.894 57.1742 147.008 57.1742H146.819C145.687 57.1742 144.555 57.5519 143.801 58.4961C143.046 59.2514 142.48 60.3845 142.669 61.5175V61.7063C142.858 63.5947 142.103 65.2943 140.783 66.6162C139.462 67.9381 137.764 68.5046 135.878 68.5046H135.689C134.557 68.5046 133.426 68.8823 132.671 69.6376C131.916 70.5818 131.351 71.526 131.351 72.6591C131.539 74.5475 130.785 76.247 129.464 77.5689C128.144 78.8908 126.446 79.4573 124.559 79.4573H123.616C123.05 79.4573 122.484 78.8908 122.484 78.1354C122.484 77.5689 123.05 77.0024 123.805 77.0024H124.371C125.503 77.1912 126.823 76.6247 127.578 75.8694C128.521 75.114 128.898 73.9809 128.898 72.8479C128.71 70.9595 129.464 69.2599 130.785 67.9381C132.105 66.6162 133.803 66.0497 135.689 66.0497H135.878C137.01 66.0497 138.142 65.672 138.896 64.9166C139.651 63.9724 140.217 63.0282 140.217 61.8952V61.7063C140.028 59.8179 140.783 58.1184 142.103 56.7965C143.424 55.4746 145.121 54.9081 147.008 54.9081H147.196C148.517 55.0969 149.837 54.3416 150.592 53.3974C150.969 52.8309 151.724 52.8309 152.101 53.2085C152.667 53.5862 152.667 54.3416 152.29 54.7193C152.101 55.2858 151.912 55.2858 151.912 55.2858Z" fill="#8E73FF"/>
<path d="M14.582 137.43H161.534" stroke="#182052" stroke-miterlimit="10" stroke-linecap="round" stroke-linejoin="round"/>
<path d="M3.26367 137.43H9.11157" stroke="#182052" stroke-miterlimit="10" stroke-linecap="round" stroke-linejoin="round"/>
<defs>
<linearGradient id="paint0_linear_661_13257" x1="11" y1="87.3033" x2="176.334" y2="88.4983" gradientUnits="userSpaceOnUse">
<stop stop-color="#17062A"/>
<stop offset="0.171875" stop-color="#18072E"/>
<stop offset="1" stop-color="#090113"/>
</linearGradient>
</defs>
</svg>
