<svg width="164" height="156" viewBox="0 0 164 156" fill="none" xmlns="http://www.w3.org/2000/svg">
<path d="M6.18807 131.019C7.64404 131.019 8.736 129.929 8.736 128.658C8.736 127.386 7.64404 126.297 6.18807 126.297C4.9141 126.297 3.64014 127.386 3.64014 128.658C3.82213 129.929 4.7321 131.019 6.18807 131.019Z" fill="#140526"/>
<path d="M146.324 39.4873C147.598 39.4873 148.69 38.3977 148.69 37.1265C148.69 35.8552 147.598 34.7656 146.324 34.7656C144.868 34.7656 143.958 35.8552 143.958 37.1265C143.776 38.5793 145.05 39.4873 146.324 39.4873Z" fill="#140526"/>
<path d="M6.55153 26.5967C8.00749 26.5967 8.91745 25.5071 8.91745 24.2358C8.91745 22.9646 7.8255 21.875 6.55153 21.875C5.27756 21.875 4.18555 22.9646 4.18555 24.2358C4.18555 25.5071 5.09556 26.5967 6.55153 26.5967Z" fill="#140526"/>
<path d="M153.969 77.8119C153.969 99.9677 144.505 120.126 129.217 134.291C125.184 138.141 120.644 141.147 116.248 143.96C115.917 144.173 115.61 144.438 115.259 144.615C114.829 144.832 114.446 145.128 114.026 145.363C103.06 151.498 90.1974 154.994 76.9843 154.994C63.7495 154.994 50.8663 151.662 39.889 145.342C39.5041 145.121 39.1545 144.837 38.7571 144.639C38.3712 144.446 38.0315 144.168 37.6633 143.943C36.5645 143.273 35.5348 142.609 34.5743 141.996C33.7317 141.457 32.9296 140.858 32.1315 140.255C31.1181 139.49 30.0265 138.751 29.1193 138.105C11.4657 123.94 0 102.51 0 77.9935C0 35.6795 34.3972 0.992897 77.3483 0.992897C120.299 0.811292 153.969 35.4979 153.969 77.8119Z" fill="url(#paint0_linear_661_13328)"/>
<path d="M66.7921 108.865C65.5182 107.593 62.7882 105.959 61.5143 105.414C61.1503 105.051 60.7863 105.051 60.4223 104.688C57.3284 102.508 54.0524 100.511 54.0524 98.3315C54.0524 97.0602 55.1444 95.4258 57.1464 93.7913C58.2384 94.881 59.3304 96.1522 60.2403 97.2418C61.5143 97.9683 64.2442 100.692 65.5182 101.056L65.8822 101.419C66.2462 101.419 66.2462 101.782 66.6102 101.782L66.7921 108.865ZM127.943 131.928C126.851 129.568 125.395 127.025 123.757 124.846C123.029 124.119 122.665 123.575 121.937 122.667C119.389 119.761 116.295 117.4 113.019 115.584C106.467 112.315 103.009 112.678 96.8215 112.678C91.5436 112.315 90.8156 111.407 90.8156 111.407V99.7843C98.6414 92.8833 103.737 87.4352 106.103 77.4469C110.653 76.3573 113.565 72.1803 113.201 67.4586C112.109 62.0104 111.745 66.9138 111.745 56.1991C111.745 55.4727 111.745 54.9278 111.381 54.0198C111.017 50.5693 110.107 46.9372 107.923 42.7603C101.553 32.5904 90.2696 25.5078 77.3479 25.5078C74.8 25.5078 72.07 25.871 69.5221 26.5974C64.9722 27.6871 60.6043 29.6847 57.1464 32.2272C56.4184 32.5904 55.6904 33.3168 54.9624 34.0433L54.5984 34.4065C50.4125 38.4018 47.5006 42.7603 45.6807 48.2085C43.8607 53.475 43.4967 59.1048 44.4067 64.3713V65.0977C44.4067 66.1874 44.7706 66.1874 44.0426 66.9138C43.6787 67.277 43.6787 67.6402 43.3147 68.0034C42.2227 69.2747 41.8587 71.9987 42.5867 74.3596C44.4067 79.2629 47.8646 78.5365 50.9585 81.4422C50.9585 81.4422 50.5945 81.8054 50.2306 81.8054L46.7726 82.895C31.1209 87.7984 25.4791 101.237 32.2129 109.773C32.5769 110.136 33.4869 110.862 33.4869 111.225C35.6709 113.405 38.7648 115.947 45.3166 116.855C44.9527 116.855 44.5886 116.855 44.2247 117.218C43.8607 117.218 43.4967 117.582 43.1327 117.582C42.7687 117.582 42.4047 117.945 42.0407 117.945C41.6767 118.308 41.3127 118.308 41.3127 118.671C34.9429 123.575 30.757 131.02 28.937 138.103C30.393 139.193 31.8489 140.282 33.1229 141.19C34.9429 142.28 36.2168 143.37 38.0368 144.278C38.4008 144.641 38.7648 144.641 39.1288 145.004H114.475C114.839 144.641 115.203 144.641 115.567 144.278C120.481 141.372 125.031 137.921 129.035 134.289C128.671 133.2 128.307 132.655 127.943 131.928Z" fill="#94D8FF"/>
<path d="M129.035 133.93C102.827 158.447 62.4243 160.081 38.0368 143.919C31.121 139.742 34.2149 141.376 28.937 137.744C31.8489 125.395 39.8568 119.765 42.0407 117.586C42.4047 117.586 42.7687 117.223 43.1327 117.223C43.4967 117.223 43.8607 116.86 44.2247 116.86C44.5886 116.86 44.9527 116.86 45.3166 116.497C39.4928 115.407 36.2169 113.409 33.6689 110.867C33.3049 110.504 33.3049 110.504 33.3049 110.14L32.9409 109.777V109.414H51.6865C56.9644 116.678 65.8822 121.4 75.8919 121.4C84.2637 121.4 91.9076 117.949 97.1855 112.32H99.0054H100.461H102.281C106.467 112.32 110.471 113.409 113.565 115.225C119.207 118.131 125.031 123.942 128.489 131.57C128.307 132.659 128.671 133.204 129.035 133.93Z" fill="#407DFC"/>
<path d="M111.017 56.5638C104.647 58.743 98.2774 59.4694 91.5436 58.9246C81.3518 58.1982 70.978 54.0213 63.1522 46.9388C60.6043 54.2029 53.8704 60.0142 46.7726 63.1015C45.6806 63.4647 44.5887 63.8279 43.8607 64.1911V63.8279C43.1327 58.5614 43.4967 52.9317 45.3166 47.6652C47.1366 42.3987 50.2305 37.6771 54.2344 33.8634L54.5984 33.5002C55.3264 32.7738 56.0544 32.4106 56.7823 31.6842C60.7863 28.7785 64.9722 27.1441 69.1581 26.0545C71.706 25.3281 74.072 25.3281 76.9839 25.3281C89.7236 25.3281 102.645 32.4106 108.469 43.3068C110.653 47.4836 111.199 51.2973 111.745 54.5661C112.109 55.4742 111.017 55.8374 111.017 56.5638Z" fill="#1F164B"/>
<path d="M71.1601 130.111C68.2482 133.562 63.3343 133.562 58.7844 133.562C63.3343 129.021 60.6044 114.493 44.5887 116.309C22.5672 112.132 25.1151 89.432 46.4087 82.8943L49.8666 81.8047C50.2306 81.8047 50.2306 82.1679 50.5946 82.1679C52.4145 86.708 54.5985 90.34 56.9644 93.4273C48.0466 100.691 60.4223 102.871 66.2462 108.5C71.8881 111.406 76.074 124.118 71.1601 130.111Z" fill="#1F164B"/>
<path d="M160.884 136.286C160.884 136.65 160.702 137.013 160.702 137.194C160.702 139.01 149.054 158.079 126.123 154.083C109.015 150.451 97.9134 133.744 101.371 116.855C105.011 99.7841 121.755 88.888 139.044 92.1568C145.05 93.428 150.692 96.5153 155.06 100.874C162.886 109.227 166.344 122.303 160.884 136.286Z" fill="#3DB5FA"/>
<path d="M113.019 98.1537C114.293 97.0641 115.749 96.1561 117.205 95.4297" stroke="#182052" stroke-miterlimit="10" stroke-linecap="round" stroke-linejoin="round"/>
<path d="M144.14 152.453C122.483 161.715 96.0936 142.465 101.371 116.859C102.281 112.5 104.101 108.505 106.649 105.055" stroke="white" stroke-miterlimit="10" stroke-linecap="round" stroke-linejoin="round"/>
<path d="M124.667 92.5211C129.217 91.4315 134.131 91.0683 138.863 92.1579C144.869 93.4291 150.51 96.5164 154.878 100.875C157.426 103.417 159.246 106.686 160.702 109.955C162.158 113.405 163.068 117.038 163.25 120.67C163.978 131.021 160.52 140.283 152.694 147.184" stroke="white" stroke-miterlimit="10" stroke-linecap="round" stroke-linejoin="round"/>
<path d="M113.929 135.202V130.299L122.665 120.855C123.575 119.947 124.121 119.221 124.121 118.131C124.121 116.86 123.393 115.77 122.119 115.77C121.209 115.77 119.753 116.134 119.753 118.131H114.111C114.111 113.591 117.751 110.867 121.937 110.867C126.305 110.867 129.763 113.591 129.763 118.131C129.763 120.855 128.853 122.127 126.851 124.124L121.209 130.117H129.945V135.202H113.929Z" fill="white"/>
<path d="M147.599 132.111V135.38H142.321V132.111H132.311V126.844L140.319 111.227H146.325L138.317 126.844H142.321V123.394H147.599V126.844H149.237V132.111H147.599Z" fill="white"/>
<path d="M102.464 112.678C100.462 112.678 97.1857 112.678 96.2757 112.678C91.5438 112.315 90.9979 111.407 90.9979 111.407V99.7843C94.4558 96.697 98.0957 93.4281 100.462 89.796C103.374 86.3455 105.012 81.987 106.104 77.4469C106.649 77.2653 107.195 77.0837 107.741 76.9021M111.927 56.3807V56.1991C111.927 55.4727 111.927 54.7462 111.563 54.0198C111.199 50.5693 110.289 46.9372 108.105 42.7603C101.736 32.5904 90.4519 25.5078 77.5302 25.5078C75.1642 25.5078 72.2523 25.871 69.7043 26.5974C65.1544 27.6871 60.7865 29.6847 57.3286 32.2272C56.6006 32.5904 55.8726 33.3168 55.1447 34.0433L54.7807 34.4065C50.5948 38.4018 47.6828 42.7603 45.8629 48.2085C44.0429 53.6566 43.6789 59.1048 44.4069 64.3713V65.0977C44.4069 66.1874 44.7709 66.1874 44.0429 66.9138C43.6789 67.277 43.6789 67.6402 43.3149 68.0034C42.2229 69.4563 41.859 71.9987 42.5869 74.3596C44.4069 79.2629 47.8648 78.5365 50.9588 81.4422C50.9588 81.4422 50.5948 81.8054 50.2308 81.8054L46.7728 82.895C26.0253 89.2512 23.4774 110.499 41.677 115.947C42.5869 116.129 43.4969 116.129 44.2249 116.674C40.221 118.126 32.7592 125.027 29.3013 136.65M57.1466 93.6097C59.8766 96.3338 59.3306 97.0602 66.4284 101.6C66.9744 101.964 66.7924 102.508 66.7924 103.235C66.7924 105.051 66.6104 106.867 66.7924 108.683C66.7924 108.501 66.2464 108.138 66.0644 108.138C62.4245 105.777 60.2405 104.506 56.7826 102.145C56.0546 101.6 55.3267 101.056 54.7807 100.329C52.9607 97.7866 54.7807 95.6074 57.1466 93.6097Z" stroke="black" stroke-miterlimit="10" stroke-linecap="round" stroke-linejoin="round"/>
<path d="M112.109 79.9912H107.923V56.3828H112.109C115.567 56.3828 118.479 59.2885 118.479 62.7389V73.9983C118.479 77.0855 115.567 79.9912 112.109 79.9912Z" fill="#1F164B"/>
<path d="M105.011 91.9737H78.0758C76.9838 91.9737 76.2559 91.2473 76.2559 90.1577C76.2559 89.068 76.9838 88.3416 78.0758 88.3416H105.011C107.559 88.3416 109.561 86.1624 109.561 83.4384V79.9879C109.561 78.8983 110.289 78.1719 111.381 78.1719C112.473 78.1719 113.201 78.8983 113.201 79.9879V83.4384C113.201 87.9784 109.561 91.9737 105.011 91.9737Z" fill="#1F164B"/>
<path d="M81.5341 93.4283H76.2562C75.1643 93.4283 74.0723 92.3387 74.0723 91.2491V89.0699C74.0723 87.9802 75.1643 86.8906 76.2562 86.8906H81.5341C82.6261 86.8906 83.7181 87.9802 83.7181 89.0699V91.2491C83.7181 92.3387 82.6261 93.4283 81.5341 93.4283Z" fill="#182052"/>
<path d="M90.8156 99.6094C87.3576 102.152 78.9858 104.694 72.98 102.878" stroke="black" stroke-miterlimit="10" stroke-linecap="round" stroke-linejoin="round"/>
<defs>
<linearGradient id="paint0_linear_661_13328" x1="2.60589e-08" y1="85.3033" x2="165.69" y2="86.5035" gradientUnits="userSpaceOnUse">
<stop stop-color="#17062A"/>
<stop offset="0.171875" stop-color="#18072E"/>
<stop offset="1" stop-color="#090113"/>
</linearGradient>
</defs>
</svg>
