<svg width="154" height="156" viewBox="0 0 154 156" fill="none" xmlns="http://www.w3.org/2000/svg">
<path d="M143.2 38.5437C150 50.1287 154 63.9109 154 78.0925C154 95.4701 148.2 111.849 138.4 124.632C133 131.623 126.6 137.815 119 142.609C107 150.599 92.4 154.993 77 154.993C34.6 155.193 0 120.638 0 78.0925C0 35.5475 34.4 0.992188 77 0.992188C92.4 0.992188 106.8 5.38651 119 13.3762C126.4 18.17 133 24.362 138.4 31.353C139.8 33.3504 141.2 35.3478 142.4 37.3452" fill="url(#paint0_linear_661_13206)"/>
<path d="M108.853 19.2266C109.877 19.2266 110.462 18.4933 110.462 17.6133C110.462 16.5867 109.731 16 108.853 16C107.976 16 107.245 16.7333 107.245 17.6133C107.098 18.4933 107.976 19.2266 108.853 19.2266Z" fill="#D531BA" fill-opacity="0.25"/>
<path d="M130.934 29.1968C132.104 29.1968 133.127 28.3168 133.127 26.9968C133.127 25.8235 132.25 24.7969 130.934 24.7969C129.764 24.7969 128.74 25.6769 128.74 26.9968C128.74 28.3168 129.91 29.1968 130.934 29.1968Z" fill="#D531BA" fill-opacity="0.25"/>
<path d="M20.38 135.048C21.5499 135.048 22.5735 134.168 22.5735 132.848C22.5735 131.675 21.6961 130.648 20.38 130.648C19.2102 130.648 18.1865 131.528 18.1865 132.848C18.1865 134.022 19.0639 135.048 20.38 135.048Z" fill="#D531BA" fill-opacity="0.25"/>
<path d="M23.5971 28.5685C24.767 28.2752 25.3519 26.9552 25.0594 25.7819C24.767 24.7552 23.4509 24.0219 22.281 24.3152C21.1111 24.6086 20.5262 25.9285 20.8187 27.1019C21.2574 28.2752 22.5735 29.0085 23.5971 28.5685Z" fill="#D531BA" fill-opacity="0.25"/>
<path d="M39.3896 135.05C40.267 134.317 40.267 132.997 39.5358 132.117C38.8047 131.237 37.4886 131.237 36.6112 131.97C35.7338 132.704 35.7338 134.024 36.4649 134.904C37.1961 135.93 38.5122 135.93 39.3896 135.05Z" fill="#D531BA" fill-opacity="0.25"/>
<path d="M132.119 57.0092C132.119 64.7293 128.718 71.7312 123.527 76.5787C122.095 77.8354 120.663 79.0922 118.694 80.1694C114.755 82.5034 110.28 83.5806 105.447 83.5806C100.614 83.5806 96.1383 82.3238 92.2001 80.1694C91.4841 79.8103 90.9471 79.4513 90.231 79.0922C83.2497 74.2447 78.7744 66.3451 78.7744 57.3683C78.7744 42.6463 90.7681 30.7969 105.447 30.7969C120.126 30.7969 132.119 42.2872 132.119 57.0092Z" fill="#AF2ECC"/>
<path d="M123.348 75.8611C122.274 73.7067 120.663 71.7318 118.336 70.2955C117.261 69.5773 116.008 69.5773 114.576 69.2183H113.502C111.175 69.2183 110.996 68.8592 110.996 68.8592V65.0889C112.249 64.0117 113.323 62.9345 114.039 61.6777C114.755 60.421 115.471 59.1642 116.008 57.7279C117.44 57.3688 118.515 55.9325 118.336 54.6758C118.336 53.9576 117.977 53.4191 117.977 52.7009V51.6237V50.9055V50.1874C117.619 49.1102 117.619 47.8534 116.724 46.5966C114.755 43.1855 111.175 40.6719 106.879 40.6719C106.163 40.6719 105.089 40.8515 104.373 40.8515C102.941 41.2106 101.509 41.9287 100.256 42.8264L99.5395 43.5445C99.5395 43.5445 99.1815 43.5445 99.1815 43.7241C97.9284 44.9808 96.8544 46.4171 96.3173 48.2125C95.6013 50.0079 95.6013 51.8032 95.9593 53.419V53.5986V53.7781C95.9593 54.1372 96.3174 53.9577 95.9593 54.4963C95.9593 54.6758 95.6013 54.6758 95.6013 54.8553C95.2433 55.2144 95.2433 56.1121 95.2433 57.0098C95.9593 58.8051 97.0334 58.4461 97.9284 59.3438L97.5704 59.5233L96.3173 59.8824C91.1261 61.6777 91.4841 65.0889 93.6322 67.782C94.3482 68.8592 95.6013 68.8592 97.5704 69.2183C96.8544 69.2183 94.7063 71.3727 94.5273 71.5522C92.2001 73.5271 90.7681 76.0406 90.41 78.7337V79.0928C91.1261 79.4518 91.6631 79.8109 92.3791 80.17H119.052C120.842 79.0928 122.453 78.0155 123.885 76.5792C123.527 76.3997 123.348 76.0406 123.348 75.8611ZM103.12 68.141C102.762 67.782 102.404 67.782 102.404 67.4229C102.046 67.2434 101.688 67.0638 101.33 66.7047C100.972 66.7047 100.972 66.5252 100.972 66.5252C99.8975 65.8071 98.8235 65.2685 98.8235 64.3708C98.8235 64.0117 99.1815 63.2936 99.8975 62.9345C100.256 63.2936 100.614 63.6526 100.972 64.1912C101.33 64.3708 101.688 64.9094 102.046 64.9094C102.404 65.0889 102.404 65.2685 102.762 65.2685H103.12C103.12 65.2685 103.478 65.2684 103.478 65.448L103.12 68.141Z" fill="#F4C5FF"/>
<path d="M117.977 80.708C114.218 82.6829 109.922 83.9397 105.446 83.9397C99.897 83.9397 94.5267 82.1443 90.2305 79.4513V79.0922C90.5885 76.3991 92.1996 73.5266 94.3477 71.7312C94.7057 71.5517 97.7489 69.5768 98.2859 69.5768C96.3168 69.2177 94.5267 69.0382 93.8107 67.9609L97.7489 68.6791C99.539 71.1926 102.224 72.6289 105.625 72.6289C108.31 72.6289 110.817 71.5517 112.607 69.7563H113.323H114.397C115.829 69.7563 117.082 70.1154 118.156 70.4744C120.483 71.5517 122.094 73.7061 123.168 76.0401C123.347 76.2196 123.526 76.5787 123.526 76.7582C121.915 78.1945 119.946 79.6308 117.977 80.708Z" fill="#EA67A4"/>
<path d="M105.805 66.7019C107.237 66.7019 109.027 66.5224 110.996 65.2656" stroke="#182052" stroke-miterlimit="10" stroke-linecap="round" stroke-linejoin="round"/>
<path d="M117.619 50.9092C111.533 52.8841 106.342 51.4478 102.046 47.6776C101.329 50.1911 99.1814 52.166 96.4962 53.2432C96.1382 53.4227 95.7802 53.4227 95.4222 53.6023C95.4222 51.8069 94.5271 47.498 98.8233 43.1892C98.8233 43.1892 99.1814 43.1892 99.1814 43.0096C105.268 37.0849 117.619 41.5733 117.619 50.9092Z" fill="#182052"/>
<path d="M104.551 75.1428C103.835 76.22 102.045 76.3996 100.613 76.22C102.045 74.7837 101.329 69.9363 96.1376 70.6544C89.5142 69.3977 88.2611 62.3957 98.1067 59.1641L98.4647 59.3436C99.1807 60.7799 99.7178 62.0366 100.613 63.1139C97.7486 65.6274 101.687 66.166 103.656 68.1409C104.909 69.2181 106.341 73.3475 104.551 75.1428Z" fill="#182052"/>
<path d="M123.527 76.5787C118.694 81.0671 112.249 83.7601 105.268 83.7601C99.7188 83.7601 94.3485 81.9648 90.0523 79.2717C83.0709 74.4242 78.5957 66.5246 78.5957 57.3683C78.5957 42.6463 90.5893 30.7969 105.268 30.7969C119.947 30.7969 131.941 42.4668 131.941 57.1888C131.941 61.8567 130.687 66.3451 128.539 70.1154" stroke="#E366FF" stroke-miterlimit="10" stroke-linecap="round" stroke-linejoin="round"/>
<path d="M73.5831 61.1422C73.5831 67.9646 70.8979 74.2483 66.4227 78.9163L65.3486 79.9935C60.8734 84.3024 54.6081 86.8159 47.8057 86.8159C42.2564 86.8159 37.4231 85.2001 33.1269 82.3275C32.0529 81.4298 30.7998 80.3526 29.7257 79.6344C24.8925 74.7869 22.0283 68.5032 22.0283 61.1422C22.0283 46.7792 33.6639 35.1094 47.8057 35.1094C61.9474 35.1094 73.5831 46.7792 73.5831 61.1422Z" fill="#E9F0F8"/>
<path d="M73.5831 61.1366C73.5831 68.6771 70.3609 75.4995 65.3486 80.1674C60.8734 84.4763 54.6081 86.9898 47.8057 86.9898C42.2564 86.9898 37.4231 85.374 33.1269 82.5014C26.3245 78.013 22.0283 69.9338 22.0283 61.3161C22.0283 46.9532 33.6639 35.2833 47.8057 35.2833C61.5894 35.1038 73.5831 46.7736 73.5831 61.1366Z" fill="#AF2ECC"/>
<path d="M66.2438 78.9169L65.1698 79.9942C60.6945 84.303 54.4292 86.8165 47.6268 86.8165C42.0775 86.8165 37.2443 85.2007 32.9481 82.3281C31.695 81.4305 30.6209 80.3532 29.5469 79.6351C29.9049 78.9169 31.158 78.5579 33.1271 77.6602L34.0221 77.4806C35.6332 76.7625 37.6023 76.2239 40.4665 74.9671C40.8245 74.7876 41.1825 74.6081 41.7195 74.249C42.0775 74.0695 42.0775 73.8899 42.0775 73.5308C42.4356 73.3513 42.4356 72.8127 42.4356 72.4536V67.2471L42.0775 67.0675C41.7195 66.3494 41.3615 65.6312 41.1825 64.7336L40.8245 64.554C39.5714 64.7335 39.7504 63.4768 39.2134 60.6042C38.8554 59.527 39.2134 59.1679 39.5714 58.9884L39.9294 58.2702C39.0344 55.9363 38.6764 54.3204 38.6764 52.7046C38.6764 50.1911 39.9294 48.3957 41.3615 47.6776C40.4665 45.7027 40.4665 45.1641 40.4665 45.1641C40.4665 45.1641 46.0158 46.0618 47.6268 45.5232C49.954 45.1641 53.5342 45.5231 54.7872 48.7548C57.1143 49.6525 58.0094 51.0888 58.1884 52.7046C58.5464 55.2181 57.1143 57.9112 56.9353 58.8088V58.9884C57.2934 59.1679 57.2934 59.3475 57.2934 60.2451C56.9353 62.7587 56.9353 64.554 55.6823 64.1949L54.6082 66.1699V66.5289V72.0945C54.6082 72.4536 54.9662 72.9922 54.9662 73.5308C54.9662 73.7104 55.3242 73.7104 55.3242 73.8899C55.6823 74.0694 56.0403 74.249 56.2193 74.6081C59.4415 76.0444 61.4106 76.583 63.3797 77.3011C64.6327 78.0193 65.8858 78.5579 66.2438 78.9169Z" fill="#F4C5FF"/>
<path d="M66.2438 78.9179L65.1698 79.9952C60.6945 84.304 54.4292 86.8176 47.6268 86.8176C42.0775 86.8176 37.2443 85.2017 32.9481 82.3291C31.695 81.4315 30.6209 80.3542 29.5469 79.6361C29.9049 78.9179 31.158 78.5589 33.1271 77.6612L34.0221 77.4816C35.6332 76.7635 37.6023 76.2249 40.4665 74.9681C40.8245 74.7886 41.1825 74.6091 41.7195 74.25C43.3306 76.2249 45.8367 77.8407 48.5219 77.8407C51.207 77.8407 53.7132 76.4044 55.3242 74.4295C55.6823 74.6091 56.0403 74.7886 56.2193 75.1477C59.4415 76.4044 61.4106 77.1226 63.3797 77.8407C64.6327 78.0203 65.8858 78.5589 66.2438 78.9179Z" fill="#A0B0C4"/>
<path d="M56.9345 58.6288C56.9345 57.9107 56.5764 57.1925 56.5764 56.6539C56.5764 56.6539 56.5764 56.4744 56.2184 56.4744C53.8913 50.7292 45.6569 54.8586 42.7927 52.345C43.8668 55.0381 42.4347 56.6539 39.9286 57.9107C37.4224 51.986 38.6755 48.3953 41.1816 47.1385C40.2866 45.1636 40.2866 44.625 40.2866 44.625C40.2866 44.625 45.8359 45.5227 47.447 44.9841C49.7741 44.625 53.3543 44.9841 54.6073 48.2157C56.9345 49.1134 57.8295 50.5497 58.0085 52.1655C58.3665 54.679 57.1135 57.5516 56.9345 58.6288Z" fill="#182052"/>
<path d="M42.4355 67.0625C42.6146 67.242 42.7936 67.4216 42.9726 67.6011L47.0898 70.4737C47.9848 71.3714 49.4169 71.3714 50.491 70.4737" stroke="#182052" stroke-miterlimit="10" stroke-linecap="round" stroke-linejoin="round"/>
<path d="M26.1455 46.9608C30.7998 39.7794 38.6762 35.1114 47.6267 35.1114C61.5894 34.9319 73.5831 46.6018 73.5831 61.1442C73.5831 68.6847 70.3609 75.5071 65.3486 80.1751C60.8734 84.4839 54.6081 86.9975 47.8057 86.9975C42.2564 86.9975 37.4231 85.3816 33.1269 82.509C26.3245 78.0206 22.0283 69.9415 22.0283 61.3237C22.0283 58.9898 22.3863 56.6558 22.9234 54.5014" stroke="#E366FF" stroke-miterlimit="10" stroke-linecap="round" stroke-linejoin="round"/>
<path d="M103.299 26.8532C103.299 33.6756 100.614 39.9594 96.1385 44.6274C95.7805 44.9865 95.4225 45.3455 95.0644 45.8841C90.5892 50.193 84.3239 52.7065 77.5215 52.7065C71.9722 52.7065 67.139 51.0907 62.8427 48.2181C61.5897 47.3204 60.5156 46.2432 59.4415 45.5251C54.6083 40.6776 51.7441 34.3938 51.7441 27.0328C51.7441 12.6699 63.3798 1 77.5215 1C91.6633 1.17954 103.299 12.6699 103.299 26.8532Z" fill="#E9F0F8"/>
<path d="M103.299 26.8474C103.299 34.388 100.077 41.2104 95.0644 45.8783C90.5892 50.1872 84.3239 52.7007 77.5215 52.7007C71.9722 52.7007 67.139 51.0849 62.8427 48.2123C56.0404 43.7239 51.7441 35.6447 51.7441 27.027C51.7441 12.6641 63.3798 0.994201 77.5215 0.994201C91.3052 0.814665 103.299 12.6641 103.299 26.8474Z" fill="#AF2ECC"/>
<path d="M95.9587 44.7999C90.9464 49.8269 85.2181 52.879 77.3417 52.879C67.3171 52.879 62.4839 48.0315 59.2617 45.6976C60.3358 43.9022 70.7183 41.7478 71.7924 39.5933C72.1504 39.4138 72.1504 38.8752 72.1504 38.5161V33.3096C71.6134 32.7709 71.2554 31.5142 70.8973 30.796L70.5393 30.6165C69.2863 30.796 69.4653 29.5393 68.9282 26.6667C68.5702 25.5895 68.9282 25.2304 69.2862 25.0509L69.6443 24.3327C68.0332 20.5625 67.3171 15.1764 70.8973 13.7401C70.0023 11.7652 70.0023 11.2266 70.0023 11.2266C70.0023 11.2266 75.5516 12.1242 77.1627 11.5856C79.4898 11.2266 83.07 11.5856 84.3231 14.8173C89.5143 16.9717 87.5452 20.9215 86.2922 24.8713V25.0509C86.6502 25.0509 86.6502 25.2304 86.6502 26.4872C86.2922 29.0007 86.2922 30.796 85.0391 30.437L83.786 32.4119C83.786 39.7729 83.607 37.9775 84.144 39.5933C84.144 39.7729 84.5021 39.7729 84.5021 39.9524C84.8601 40.1319 85.2181 40.3115 85.3971 40.6705C90.4094 42.4659 94.5266 43.7227 95.9587 44.7999Z" fill="#F4C5FF"/>
<path d="M95.9587 44.8009C95.6007 45.16 95.2426 45.5191 94.8846 46.0577C90.4094 50.3665 84.144 52.8801 77.3417 52.8801C71.7924 52.8801 66.9591 51.2642 62.6629 48.3916C61.5888 47.494 60.3358 46.4167 59.2617 45.6986C59.6197 44.9804 60.8728 44.6214 62.8419 43.7237L63.737 43.5442C65.348 42.826 67.3171 42.1079 70.1813 41.0307C70.5393 40.8511 70.8973 40.6716 71.2554 40.3125C72.8664 42.2874 75.3726 43.9032 78.0577 43.9032C80.7429 43.9032 83.249 42.4669 84.8601 40.492C85.2181 40.6716 85.5761 40.8511 85.7551 41.2102C88.9773 42.4669 90.9464 43.1851 92.9155 43.9032C94.3476 43.9032 95.2426 44.2623 95.9587 44.8009Z" fill="#84A2FF"/>
<path d="M85.9342 22.1855C83.0701 16.7994 75.3727 20.9287 72.5085 18.2357C73.5826 20.9287 72.1505 22.5446 69.6444 23.8013C67.1382 17.8766 68.3913 14.2859 70.8974 13.0291C70.0024 11.0542 70.0024 10.5156 70.0024 10.5156C70.0024 10.5156 75.5517 11.4133 77.1628 10.8747C79.4899 10.5156 83.0701 10.8747 84.3232 14.1064C90.2305 16.6199 86.6503 22.006 86.4713 24.3399C86.6503 24.1604 86.2923 22.1855 85.9342 22.1855Z" fill="#182052"/>
<path d="M71.9717 33.1328C72.1507 33.3123 72.3297 33.4919 72.5087 33.4919L76.6259 36.3645C77.521 37.2622 78.9531 37.2622 80.0271 36.3645L80.5641 36.0054" stroke="#182052" stroke-miterlimit="10" stroke-linecap="round" stroke-linejoin="round"/>
<path d="M102.941 30.803C102.046 36.7277 99.1817 42.1139 95.0644 45.8841C90.5892 50.193 84.3239 52.7065 77.5215 52.7065C71.9722 52.7065 67.139 51.0907 62.8427 48.2181C56.0404 43.7297 51.7441 35.6505 51.7441 27.0328C51.7441 12.6699 63.3798 1 77.5215 1C90.2312 1 101.33 10.695 103.12 23.2625" stroke="#E366FF" stroke-miterlimit="10" stroke-linecap="round" stroke-linejoin="round"/>
<path d="M60.3359 44.6202C63.3791 43.0044 70.7185 41.209 71.6135 39.4136C71.9716 39.2341 71.9716 38.6955 71.9716 38.3364V33.1299C71.4345 32.5913 71.0765 31.3345 70.7185 30.6164L70.3605 30.4368C69.1074 30.6164 69.2864 29.3596 68.7494 26.487C68.3914 25.4098 68.7494 25.0507 69.1074 24.8712L69.4654 24.153C67.8543 20.3828 67.1383 14.9967 70.7185 13.5604C69.8234 11.5855 69.8234 11.0469 69.8234 11.0469C69.8234 11.0469 75.3727 11.9446 76.9838 11.406C79.3109 11.0469 82.8911 11.4059 84.1442 14.6376C89.3355 16.792 87.3664 20.7419 86.1133 24.6917V24.8712C86.4713 24.8712 86.4713 25.0507 86.4713 26.3075C86.1133 28.821 86.1133 30.6164 84.8602 30.2573L83.6072 32.2322C83.6072 39.5932 83.4282 37.7978 83.9652 39.4136C83.9652 39.5932 84.3232 39.5932 84.3232 39.7727C84.6812 39.9522 85.0393 40.1318 85.2183 40.4909C90.0515 42.4658 94.1687 43.7225 95.6008 44.7997" stroke="#182052" stroke-miterlimit="10" stroke-linecap="round" stroke-linejoin="round"/>
<path d="M123.347 75.8612C122.452 74.2453 121.378 72.6295 119.767 71.3728C119.409 71.0137 118.872 70.6546 118.335 70.4751C117.261 69.7569 116.008 69.5774 114.576 69.3979H113.502C111.175 69.3979 110.996 69.0388 110.996 69.0388V65.089C112.249 64.0118 113.323 62.9346 114.039 61.6778C114.755 60.4211 115.471 59.1643 115.829 57.5485C117.261 57.1894 118.335 55.7531 118.156 54.4963C118.156 53.7782 117.798 53.2396 117.798 52.701V50.367C117.44 49.2898 117.44 48.033 116.545 46.7763C114.755 43.1855 110.817 40.8516 106.699 40.8516C105.804 40.8516 104.909 41.0311 104.193 41.0311C102.761 41.3902 101.329 42.1083 100.076 43.006L99.36 43.7242C99.36 43.7242 99.0019 43.7241 99.0019 43.9037C97.7489 45.1604 96.6748 46.5967 95.9588 48.5716C95.2427 50.367 95.2427 52.1624 95.6008 53.7782V54.3168C95.6008 54.6759 95.9588 54.4963 95.6008 55.0349C95.6008 55.394 95.2427 55.394 95.2427 55.394C95.0637 55.7531 94.8847 56.6508 95.0637 57.5485C95.7798 59.3438 96.8538 58.9848 97.7489 59.8824L97.3909 60.062L96.1378 60.421C92.1996 62.0369 90.2305 64.5504 92.0206 67.6025C92.7366 68.8592 94.5267 69.3979 96.4958 69.7569C95.4217 70.2956 94.5267 71.3728 94.3477 71.5523C92.0206 73.3477 90.5885 76.2202 90.2305 78.9133V79.2724C94.5267 82.1449 99.718 83.7608 105.446 83.7608C112.428 83.7608 118.693 81.0677 123.526 76.5793C123.526 76.2202 123.347 76.0407 123.347 75.8612Z" stroke="#182052" stroke-miterlimit="10" stroke-linecap="round" stroke-linejoin="round"/>
<path d="M29.5469 79.4555C30.0839 78.9169 31.158 78.3783 33.1271 77.6602C34.9172 77.1216 38.6764 75.6853 41.7195 74.249C42.0775 74.0695 42.0775 73.8899 42.0775 73.5308C42.4356 73.3513 42.4356 72.8127 42.4356 72.4536V67.2471C41.8985 66.7084 41.5405 65.4517 41.1825 64.7336L40.8245 64.554C39.5714 64.7335 39.7504 63.4768 39.2134 60.6042C38.8554 59.527 39.2134 59.1679 39.5714 58.9884L39.9294 58.2702C38.3183 54.3204 37.6023 49.2934 41.1825 47.6776C40.2874 45.7027 40.2874 45.1641 40.2874 45.1641C40.2874 45.1641 45.8367 46.0618 47.4478 45.5232C49.775 45.1641 53.3551 45.5231 54.6082 48.7548C56.9353 49.6525 57.8304 51.0888 58.0094 52.7046C58.3674 55.2181 56.9353 57.9112 56.7563 58.8088V58.9884C57.1143 59.1679 57.1143 59.3475 57.1143 60.2451C56.7563 62.7587 56.7563 64.554 55.5033 64.1949L54.4292 66.1699C54.4292 73.3513 54.2502 71.5559 54.7872 73.3513C54.7872 73.5309 55.1452 73.5308 55.1452 73.7104C55.5033 73.8899 55.8613 74.0694 56.0403 74.4285C59.4415 75.8648 64.8118 77.6602 66.0648 78.9169" stroke="#182052" stroke-miterlimit="10" stroke-linecap="round" stroke-linejoin="round"/>
<path d="M108.049 91.9609V126.23C108.049 142.033 95.1251 154.817 79.3686 154.817C78.6604 154.817 77.9523 154.817 77.0671 154.64C62.3728 153.397 50.8652 141.145 50.8652 126.23V91.9609H62.9039V126.23C62.9039 134.575 68.9233 141.323 76.89 142.388C77.5982 142.566 78.3063 142.566 79.1915 142.566C88.2206 142.566 95.4792 135.286 95.4792 126.23V91.9609H108.049Z" fill="#8466FF"/>
<path d="M103.445 91.9609V126.23C103.445 141.323 91.9379 153.574 77.2436 154.64C76.5355 154.64 75.8273 154.817 74.9421 154.817C59.1856 154.817 46.2617 142.033 46.2617 126.23V91.9609H58.3004V126.23C58.3004 135.286 65.559 142.566 74.588 142.566C75.2962 142.566 76.0044 142.566 76.8895 142.388C84.8563 141.323 90.8757 134.22 90.8757 126.23V91.9609H103.445Z" fill="#5629F7"/>
<path d="M49.8028 115.931C49.0946 115.931 48.5635 115.399 48.5635 114.688V112.735C48.5635 112.025 49.0946 111.492 49.8028 111.492C50.5109 111.492 51.042 112.025 51.042 112.735V114.866C51.042 115.399 50.5109 115.931 49.8028 115.931Z" fill="white" fill-opacity="0.2"/>
<path d="M57.9466 145.944C57.5925 145.944 57.4155 145.766 57.2384 145.766C51.7502 140.617 48.5635 133.692 48.5635 126.235V119.665C48.5635 118.955 49.0946 118.422 49.8028 118.422C50.5109 118.422 51.042 118.955 51.042 119.665V126.235C51.042 132.804 53.8747 139.374 59.0088 143.813C59.5399 144.168 59.5399 145.056 59.1858 145.589C58.6547 145.766 58.3006 145.944 57.9466 145.944Z" fill="white" fill-opacity="0.2"/>
<path d="M74.7655 152.506C70.3395 152.506 65.9136 151.441 61.8416 149.133C61.3105 148.955 61.1335 148.067 61.3105 147.357C61.6646 146.824 62.3728 146.647 63.0809 146.824C66.6217 148.778 70.6936 149.843 74.5885 149.843C75.2966 149.843 75.8278 149.843 76.5359 149.665C79.8997 149.488 82.7323 148.6 85.742 147.002C86.2731 146.824 86.9813 146.824 87.3353 147.535C87.6894 148.067 87.5124 148.778 86.8042 149.133C83.6175 150.731 80.2538 151.974 76.713 152.151C76.3589 152.506 75.4737 152.506 74.7655 152.506Z" fill="white" fill-opacity="0.2"/>
<path d="M62.9034 91.9609H46.2617V107.054H62.9034V91.9609Z" fill="#DDE6F2"/>
<path d="M62.9034 91.9609H46.2617V107.054H62.9034V91.9609Z" fill="#E67EFD"/>
<path d="M58.3004 91.9609H46.2617V107.054H58.3004V91.9609Z" fill="#C65DDE"/>
<path d="M107.872 91.9609H91.2305V107.054H107.872V91.9609Z" fill="#E67EFD"/>
<path d="M103.446 91.9609H91.4075L91.2305 107.054H103.446V91.9609Z" fill="#C65DDE"/>
<path d="M63.0809 128.178C63.0809 127.467 62.9033 126.757 62.9033 126.047" stroke="#771478" stroke-miterlimit="10" stroke-linecap="round" stroke-linejoin="round"/>
<path d="M105.393 138.657C107.164 135.106 108.049 130.845 108.049 126.05V91.7812H95.6562H91.0531V126.05C91.0531 135.994 81.1389 145.76 71.4017 140.433C68.5691 138.835 66.4446 136.527 65.0283 133.863" stroke="#771478" stroke-miterlimit="10" stroke-linecap="round" stroke-linejoin="round"/>
<path d="M46.085 92.3125C46.085 95.8637 46.085 126.227 46.085 126.227C46.085 155.702 82.201 162.449 99.3738 146.824" stroke="#771478" stroke-miterlimit="10" stroke-linecap="round" stroke-linejoin="round"/>
<path d="M62.9043 119.128V91.9609C56.3539 91.9609 55.4687 91.9609 52.459 91.9609" stroke="#771478" stroke-miterlimit="10" stroke-linecap="round" stroke-linejoin="round"/>
<defs>
<linearGradient id="paint0_linear_661_13206" x1="2.60643e-08" y1="85.3033" x2="165.724" y2="86.504" gradientUnits="userSpaceOnUse">
<stop stop-color="#17062A"/>
<stop offset="0.171875" stop-color="#18072E"/>
<stop offset="1" stop-color="#090113"/>
</linearGradient>
</defs>
</svg>
