<svg width="123" height="140" viewBox="0 0 123 140" fill="none" xmlns="http://www.w3.org/2000/svg">
<path d="M117.564 68.9447L7 132.474L58.7265 63.3886L22.9375 53.7162C22.8025 53.6798 22.6796 53.6078 22.5815 53.5079C22.4833 53.4079 22.4134 53.2836 22.379 53.1475C22.3445 53.0113 22.3467 52.8684 22.3853 52.7333C22.4238 52.5981 22.4975 52.4756 22.5986 52.3782L73.2222 3.63107C73.3207 3.53665 73.4418 3.46923 73.5737 3.43523C73.7055 3.40124 73.8438 3.40181 73.9752 3.43693L118.826 15.5583C118.961 15.5948 119.084 15.6667 119.182 15.7666C119.28 15.8666 119.35 15.991 119.384 16.127C119.419 16.2632 119.416 16.4061 119.379 16.5413C119.34 16.6764 119.266 16.799 119.165 16.8963L78.4306 56.1209L117.269 66.6172C117.51 66.6825 117.727 66.8183 117.891 67.0075C118.056 67.1968 118.161 67.4308 118.192 67.68C118.223 67.9293 118.18 68.1826 118.069 68.4077C117.957 68.6329 117.781 68.8197 117.564 68.9447Z" fill="#95FF00"/>
<path d="M121.756 67.2422C121.649 66.3195 121.267 65.4514 120.659 64.7519C120.052 64.0523 119.247 63.5539 118.352 63.3221L85.3204 54.3948L121.707 19.357C122.243 18.8407 122.634 18.191 122.837 17.4744C123.042 16.7578 123.054 16 122.871 15.2784C122.688 14.5569 122.317 13.8974 121.797 13.3677C121.277 12.8379 120.625 12.4568 119.909 12.2632L75.0585 0.141912C74.3617 -0.0442006 73.6285 -0.0473171 72.9293 0.132941C72.23 0.313104 71.5882 0.670694 71.0654 1.17115L20.4417 49.9182C19.9056 50.4345 19.5154 51.0842 19.3109 51.8008C19.1065 52.5174 19.095 53.2752 19.2778 53.9968C19.4607 54.7183 19.8314 55.3777 20.3517 55.9074C20.8721 56.4372 21.5236 56.8184 22.2396 57.0119L53.1847 65.3752L0.406855 135.866C0.127923 136.235 -0.0153197 136.69 0.00129916 137.153C0.0180124 137.615 0.193549 138.058 0.498354 138.406C0.803158 138.752 1.21825 138.983 1.67348 139.057C2.1287 139.132 2.59582 139.046 2.99581 138.814L119.439 71.9058C120.247 71.4525 120.902 70.7645 121.315 69.9323C121.729 69.1001 121.883 68.1624 121.756 67.2422ZM117.756 68.945L7.19264 132.475L58.9191 63.3888L23.1301 53.7166C22.9951 53.68 22.8722 53.6081 22.774 53.5082C22.6759 53.4083 22.6061 53.2839 22.5715 53.1477C22.537 53.0117 22.5393 52.8687 22.5778 52.7335C22.6164 52.5984 22.69 52.4758 22.7911 52.3785L73.4148 3.6314C73.5134 3.53697 73.6344 3.46946 73.7663 3.43547C73.8982 3.40157 74.0364 3.40213 74.1678 3.43726L119.019 15.5585C119.154 15.5951 119.277 15.667 119.375 15.7669C119.473 15.8668 119.543 15.9912 119.577 16.1274C119.612 16.2634 119.609 16.4064 119.571 16.5415C119.533 16.6767 119.459 16.7993 119.358 16.8966L78.6233 56.1211L117.462 66.6175C117.703 66.6828 117.92 66.8186 118.084 67.0079C118.248 67.197 118.353 67.4311 118.384 67.6804C118.416 67.9296 118.373 68.1829 118.262 68.408C118.149 68.6331 117.974 68.82 117.756 68.945Z" fill="#060606"/>
</svg>
