<svg width="50" height="50" viewBox="0 0 50 50" fill="none" xmlns="http://www.w3.org/2000/svg">
<path d="M25 50C38.8071 50 50 38.8071 50 25C50 11.1929 38.8071 0 25 0C11.1929 0 0 11.1929 0 25C0 38.8071 11.1929 50 25 50Z" fill="#95FF00"/>
<path d="M31.285 28.3172C31.285 24.9984 29.285 23.8609 25.285 23.3859C22.4288 23.0063 21.8585 22.2484 21.8585 20.9203C21.8585 19.5922 22.8116 18.7391 24.7147 18.7391C26.4288 18.7391 27.3819 19.3078 27.8569 20.7312C27.9064 20.8689 27.9969 20.9881 28.1162 21.0727C28.2355 21.1574 28.3778 21.2034 28.5241 21.2047H30.0475C30.1355 21.207 30.2231 21.1915 30.3049 21.159C30.3867 21.1265 30.461 21.0777 30.5234 21.0156C30.5858 20.9535 30.6349 20.8794 30.6678 20.7978C30.7007 20.7161 30.7166 20.6286 30.7147 20.5406V20.4469C30.5285 19.417 30.0075 18.4775 29.2324 17.7742C28.4574 17.071 27.4718 16.6434 26.4288 16.5578V14.2828C26.4288 13.9031 26.1428 13.6187 25.6678 13.5234H24.2382C23.8585 13.5234 23.5725 13.8078 23.4772 14.2828V16.4641C20.6194 16.8422 18.8116 18.7391 18.8116 21.1109C18.8116 24.2391 20.7147 25.4719 24.7147 25.9469C27.3819 26.4203 28.2382 26.9906 28.2382 28.5078C28.2382 30.0234 26.9053 31.0672 25.096 31.0672C22.6194 31.0672 21.7631 30.025 21.4772 28.6016C21.3835 28.2234 21.096 28.0328 20.81 28.0328H19.1913C19.1034 28.0307 19.016 28.0464 18.9344 28.079C18.8528 28.1116 18.7786 28.1604 18.7164 28.2225C18.6542 28.2845 18.6052 28.3586 18.5724 28.4401C18.5396 28.5217 18.5237 28.609 18.5256 28.6969V28.7906C18.9053 31.1625 20.4303 32.8687 23.5725 33.3438V35.6203C23.5725 35.9984 23.8585 36.2844 24.3335 36.3781H25.7632C26.1428 36.3781 26.4288 36.0938 26.5241 35.6203V33.3422C29.3819 32.8687 31.285 30.8766 31.285 28.3156V28.3172Z" fill="#060606"/>
<path d="M20.1438 38.2766C12.7156 35.6203 8.90625 27.3703 11.6688 20.0687C13.0969 16.0844 16.2391 13.0516 20.1438 11.6281C20.525 11.4391 20.7141 11.1547 20.7141 10.6797V9.35156C20.7141 8.97344 20.525 8.68906 20.1438 8.59375C20.0484 8.59375 19.8578 8.59375 19.7625 8.6875C17.6194 9.35676 15.6299 10.4433 13.9085 11.8846C12.1871 13.326 10.7677 15.0936 9.73226 17.0857C8.69678 19.0778 8.06558 21.255 7.87501 23.4921C7.68445 25.7291 7.93827 27.9818 8.62188 30.1203C10.3344 35.4328 14.4297 39.5109 19.7625 41.2172C20.1438 41.4062 20.525 41.2172 20.6187 40.8375C20.7141 40.7437 20.7141 40.6469 20.7141 40.4578V39.1297C20.7141 38.8453 20.4297 38.4672 20.1438 38.2766ZM30.2375 8.68906C29.8562 8.49844 29.475 8.68906 29.3813 9.06719C29.2859 9.1625 29.2859 9.25781 29.2859 9.44687V10.775C29.2859 11.1547 29.5703 11.5328 29.8562 11.7234C37.2844 14.3797 41.0937 22.6297 38.3312 29.9312C36.9031 33.9156 33.7609 36.9484 29.8562 38.3719C29.475 38.5609 29.2859 38.8453 29.2859 39.3203V40.6484C29.2859 41.0266 29.475 41.3109 29.8562 41.4062C29.9516 41.4062 30.1422 41.4062 30.2375 41.3125C32.3806 40.6432 34.3701 39.5567 36.0915 38.1154C37.8129 36.674 39.2323 34.9064 40.2677 32.9143C41.3032 30.9222 41.9344 28.745 42.125 26.5079C42.3156 24.2709 42.0617 22.0182 41.3781 19.8797C39.6656 14.4734 35.475 10.3953 30.2375 8.68906Z" fill="#060606"/>
</svg>
