<svg width="50" height="50" viewBox="0 0 50 50" fill="none" xmlns="http://www.w3.org/2000/svg">
<g clip-path="url(#clip0_661_13065)">
<circle cx="25" cy="25" r="25" fill="#060606"/>
<path fill-rule="evenodd" clip-rule="evenodd" d="M49.2517 31.0514C45.9123 44.4458 32.346 52.5975 18.95 49.2573C5.55955 45.9179 -2.5921 32.3508 0.748877 18.9572C4.08673 5.56121 17.653 -2.59122 31.0451 0.748201C44.4402 4.08762 52.5911 17.6563 49.2517 31.0514ZM36.0237 21.441C36.5214 18.1141 33.9884 16.3256 30.5247 15.1325L31.6483 10.6258L28.905 9.94215L27.8111 14.3301C27.09 14.1504 26.3493 13.9809 25.6132 13.8129L26.7149 9.396L23.9732 8.71233L22.8489 13.2175C22.2519 13.0815 21.6659 12.9472 21.0971 12.8057L21.1003 12.7917L17.317 11.847L16.5873 14.777C16.5873 14.777 18.6227 15.2435 18.5797 15.2724C19.6907 15.5498 19.8915 16.285 19.8579 16.8679L18.5781 22.002C18.6547 22.0216 18.7539 22.0497 18.8633 22.0934C18.7719 22.0708 18.6742 22.0458 18.5734 22.0216L16.7795 29.2137C16.6435 29.5513 16.299 30.0576 15.5223 29.8654C15.5497 29.9052 13.5284 29.3677 13.5284 29.3677L12.1665 32.5078L15.7364 33.3978C16.4005 33.5642 17.0514 33.7384 17.6921 33.9025L16.5568 38.4608L19.2969 39.1445L20.4213 34.6346C21.1698 34.8378 21.8964 35.0253 22.6075 35.2019L21.487 39.6906L24.2303 40.3743L25.3656 35.8246C30.0434 36.7098 33.561 36.3528 35.0416 32.1219C36.2347 28.7152 34.9822 26.7502 32.521 25.4688C34.3134 25.0555 35.6635 23.8764 36.0237 21.441ZM29.7559 30.2302C28.9081 33.6369 23.1724 31.7953 21.3128 31.3335L22.8192 25.2946C24.6788 25.7587 30.6419 26.6775 29.7559 30.2302ZM30.6044 21.3918C29.8309 24.4906 25.0569 22.9162 23.5083 22.5302L24.8741 17.0531C26.4227 17.439 31.41 18.1594 30.6044 21.3918Z" fill="#95FF00"/>
</g>
<defs>
<clipPath id="clip0_661_13065">
<rect width="50" height="50" fill="white"/>
</clipPath>
</defs>
</svg>
