<svg width="35" height="34" viewBox="0 0 35 34" fill="none" xmlns="http://www.w3.org/2000/svg">
<path fill-rule="evenodd" clip-rule="evenodd" d="M3.11884 17.843C4.20586 13.4495 4.13467 9.21851 4.26495 4.76207C4.29027 3.89175 3.6025 3.16819 2.72961 3.14198C1.85619 3.11576 1.12727 3.8026 1.10143 4.67292C0.978013 8.89868 1.07771 12.9199 0.0460645 17.0933C-0.162795 17.9374 0.356729 18.792 1.20483 18.9964C2.0524 19.2061 2.9105 18.6871 3.11884 17.843Z" fill="#202020"/>
<path fill-rule="evenodd" clip-rule="evenodd" d="M12.354 26.3576C19.7284 19.6572 26.6767 11.038 31.5333 2.33479C31.9568 1.57458 31.6809 0.615089 30.9172 0.195658C30.1535 -0.223772 29.1894 0.0488813 28.7659 0.809097C24.0697 9.22391 17.3498 17.5601 10.219 24.0351C9.57447 24.6223 9.52964 25.6184 10.1188 26.258C10.7079 26.8977 11.7095 26.9448 12.354 26.3576Z" fill="#202020"/>
<path fill-rule="evenodd" clip-rule="evenodd" d="M14.2223 33.6778C20.967 34.784 27.919 32.8966 34.0518 30.228C34.852 29.8767 35.2169 28.9488 34.8673 28.1571C34.517 27.3602 33.583 26.9984 32.7829 27.3444C27.1974 29.7771 20.8805 31.5807 14.7376 30.574C13.8757 30.4325 13.0609 31.0144 12.919 31.869C12.7766 32.7236 13.361 33.5362 14.2223 33.6778Z" fill="#202020"/>
</svg>
