<svg width="105" height="104" viewBox="0 0 105 104" fill="none" xmlns="http://www.w3.org/2000/svg">
<path d="M34.9426 100.33C22.845 96.0584 12.7753 87.4742 6.68672 76.2421C0.598132 65.0104 -1.07521 51.9315 1.99131 39.5428C5.05783 27.1542 12.6456 16.3391 23.2827 9.19554C33.9197 2.05193 46.8476 -0.910865 59.5588 0.881884C72.27 2.67464 83.8579 9.09509 92.0742 18.8978C100.291 28.7005 104.551 41.1866 104.028 53.9339C103.505 66.6813 98.2352 78.7807 89.2418 87.8859C80.249 96.9907 68.1731 102.452 55.3575 103.209C48.4267 103.624 41.483 102.645 34.9426 100.33Z" fill="white"/>
<path d="M83.9963 80.4796C76.8 88.3308 66.9252 93.2454 56.2878 94.2681C45.6509 95.2914 35.0105 92.3497 26.433 86.0153C17.8555 79.6805 11.9528 70.4044 9.87075 59.9882C7.78868 49.5719 9.67595 38.7582 15.1661 29.6469C20.6563 20.5356 29.3576 13.7767 39.5809 10.6823C49.804 7.58795 60.8195 8.37897 70.4886 12.9018C80.1582 17.4246 87.7914 25.3565 91.9062 35.1576C96.021 44.9586 96.3244 55.9296 92.7569 65.9403C90.8478 71.3215 87.8681 76.266 83.9963 80.4796Z" fill="#3FDBA3"/>
<path d="M97.5139 49.0209C96.8591 37.8381 92.046 27.2961 84.0093 19.4415C75.972 11.5869 65.2849 6.98007 54.0224 6.51545C42.7593 6.05089 31.7249 9.76162 23.0606 16.9273C14.3964 24.093 8.72072 34.2023 7.13547 45.2926C5.55016 56.3831 8.16842 67.663 14.4819 76.9432C20.7954 86.2228 30.3537 92.8403 41.3009 95.511C52.2483 98.1813 63.804 96.7148 73.7238 91.3946C83.644 86.0749 91.2209 77.2817 94.9838 66.7226C97.0136 61.0506 97.874 55.0304 97.5139 49.0209ZM83.996 80.4786C76.8001 88.3298 66.9254 93.2444 56.288 94.2672C45.651 95.2904 35.0106 92.3487 26.4332 86.0144C17.8556 79.6795 11.9528 70.4034 9.87082 59.9872C7.7888 49.5709 9.67607 38.7573 15.1663 29.6459C20.6564 20.5347 29.3577 13.7757 39.5811 10.6813C49.8042 7.58702 60.8197 8.37804 70.4888 12.9008C80.1584 17.4237 87.7911 25.3556 91.9064 35.1566C96.0212 44.9577 96.3245 55.9287 92.7571 65.9393C90.8475 71.3205 87.8683 76.265 83.996 80.4786Z" fill="black"/>
<path d="M77.8006 62.5795C76.3591 62.0702 75.1795 61.0138 74.5206 59.6413C73.8618 58.2694 73.7779 56.693 74.2868 55.2595L72.0606 54.4757C71.413 56.3011 71.4447 58.2963 72.1501 60.0999C72.8556 61.9039 74.1881 63.3964 75.9059 64.3078C73.4622 70.3641 68.7786 75.2604 62.8161 77.9937C56.449 80.9222 49.181 81.2587 42.5674 78.9311C35.9537 76.6039 30.5187 71.7971 27.425 65.5395C24.5222 59.6871 23.9835 52.9522 25.9193 46.7177C27.8316 47.084 29.8125 46.7568 31.503 45.7962C33.1936 44.8356 34.4818 43.3049 35.1343 41.4816L32.9078 40.698C32.3969 42.1317 31.3338 43.3051 29.9523 43.9598C28.5709 44.6146 26.9843 44.6973 25.5415 44.1895C24.0988 43.6819 22.9181 42.6254 22.2592 41.2526C21.6003 39.8798 21.517 38.3031 22.0279 36.8694L19.8014 36.0859C19.1511 37.9186 19.1861 39.9226 19.9 41.7318C20.6139 43.5409 21.959 45.0345 23.6895 45.9395C21.5434 52.7661 22.1204 60.1512 25.3015 66.5669C28.6665 73.3785 34.581 78.6108 41.7791 81.1438C48.9769 83.6769 56.8869 83.3093 63.8156 80.1201C70.3511 77.1234 75.4762 71.7453 78.1316 65.0978C80.0498 65.4765 82.0407 65.1573 83.7416 64.1975C85.442 63.2378 86.7382 61.7026 87.3935 59.8716L85.1668 59.0878C84.6547 60.5208 83.5912 61.693 82.2101 62.3472C80.8294 63.0019 79.2436 63.0853 77.8006 62.5795Z" fill="black"/>
<path d="M55.28 23.61L56.6903 24.1063C57.361 24.3424 57.9104 24.8338 58.2168 25.4722C58.5232 26.1106 58.5621 26.844 58.3242 27.5107L51.4512 46.7978C51.2138 47.4646 50.7192 48.01 50.0767 48.315C49.4342 48.6195 48.6965 48.6576 48.0254 48.4217L46.6151 47.9251C46.2831 47.8082 45.9772 47.6277 45.7153 47.3934C45.4534 47.159 45.2401 46.8754 45.0887 46.5594C44.9367 46.2432 44.8493 45.9005 44.8308 45.5507C44.8124 45.2009 44.8631 44.851 44.9807 44.5208L51.8537 25.2338C51.9714 24.9036 52.1535 24.5998 52.3893 24.3395C52.6251 24.0792 52.9106 23.8676 53.2283 23.7168C53.5464 23.566 53.8917 23.479 54.2437 23.4607C54.5956 23.4423 54.9475 23.4931 55.28 23.61Z" fill="black"/>
<path d="M66.314 27.4889L67.7243 27.9852C68.3954 28.2213 68.9448 28.7126 69.2512 29.3511C69.5576 29.9896 69.596 30.7228 69.3586 31.3897L62.4856 50.6767C62.3679 51.0066 62.1858 51.3106 61.95 51.5709C61.7142 51.8311 61.4293 52.0431 61.1111 52.1936C60.7929 52.3445 60.4481 52.4315 60.0962 52.4498C59.7443 52.4681 59.3918 52.4172 59.0598 52.3003L57.6495 51.8042C56.9784 51.5683 56.4295 51.0768 56.1231 50.4383C55.8162 49.7998 55.7778 49.0663 56.0151 48.3999L62.8882 29.1127C63.126 28.446 63.6202 27.9003 64.2627 27.5958C64.9052 27.2912 65.6433 27.2528 66.314 27.4889Z" fill="black"/>
</svg>
