<svg width="79" height="91" viewBox="0 0 79 91" fill="none" xmlns="http://www.w3.org/2000/svg">
<g clip-path="url(#clip0_661_13357)">
<path d="M29.0746 89.6513C19.0849 88.8764 9.7497 84.3798 2.91548 77.0506C2.85112 76.9807 2.81151 76.8916 2.80271 76.7973C2.79391 76.703 2.81644 76.6083 2.86681 76.5276C2.91718 76.4474 2.99259 76.3855 3.08143 76.3521C3.17027 76.3188 3.26759 76.316 3.35839 76.3432C6.18171 77.1965 12.0318 78.7852 12.5131 77.4615C13.1421 75.7311 -9.07787 68.6364 6.53749 39.8115C6.57928 39.7338 6.64379 39.6707 6.72237 39.6306C6.80095 39.5906 6.88986 39.5755 6.97722 39.5873C7.06464 39.5992 7.14635 39.6374 7.21142 39.697C7.27649 39.7565 7.32188 39.8345 7.34147 39.9205C8.14675 43.5367 10.9585 54.4699 15.2179 52.8718C20.2839 50.9716 11.2231 47.235 22.5236 21.2761C22.5686 21.1722 22.6524 21.0901 22.7571 21.0472C22.8618 21.0044 22.9791 21.0042 23.084 21.0467C25.4585 22.0169 37.9782 26.5869 39.5614 15.7891C40.7964 7.36664 40.6054 3.22306 40.3859 1.51333C40.3754 1.43006 40.3895 1.34555 40.4262 1.27013C40.463 1.19469 40.5209 1.1316 40.5929 1.08855C40.6649 1.0455 40.7479 1.02435 40.8318 1.02769C40.9156 1.03103 40.9966 1.0587 41.065 1.10734C45.5243 4.27727 65.6541 19.8395 65.3405 42.2558C65.3335 42.9955 65.5475 43.7205 65.9542 44.3382C66.3614 44.9558 66.9429 45.4382 67.6249 45.7238C68.3074 46.0094 69.0591 46.0852 69.7846 45.9415C70.5101 45.7978 71.1762 45.4412 71.6979 44.9172C73.1886 43.3422 74.4745 41.5856 75.5258 39.6888C75.5675 39.6162 75.6296 39.5573 75.7044 39.5192C75.7787 39.4812 75.8629 39.4657 75.9466 39.4746C76.0298 39.4835 76.1088 39.5164 76.1737 39.5693C76.2387 39.6222 76.2869 39.6929 76.3121 39.7727C77.4896 43.5101 80.9287 58.207 67.9694 72.5911C67.9002 72.6671 67.861 72.7656 67.8582 72.8683C67.8549 72.9711 67.8886 73.0715 67.9531 73.1512C68.0171 73.2314 68.1078 73.2863 68.2088 73.3055C68.3093 73.3248 68.414 73.3074 68.5033 73.2567C70.7868 71.9466 72.8637 70.3053 74.6657 68.3864C74.7158 68.3329 74.7784 68.2935 74.8476 68.271C74.9168 68.2485 74.9906 68.2438 75.0621 68.2574C75.1337 68.2714 75.2005 68.3029 75.2566 68.3493C75.3127 68.3962 75.3562 68.4563 75.3828 68.5238C77.0058 72.7858 74.7676 82.3478 55.1878 87.7806C46.7825 90.1133 38.3025 90.3502 29.0746 89.6513Z" fill="#F4564E"/>
<path d="M35.5454 90.9475C32.8692 90.9475 30.0375 90.8307 27.0027 90.6008H27.0027C16.7732 89.8147 7.21314 85.2103 0.21979 77.7009C0.012342 77.4781 -0.115933 77.1933 -0.145209 76.8903C-0.174481 76.5873 -0.103129 76.2829 0.0578256 76.0244C0.218785 75.766 0.460412 75.568 0.74527 75.4606C1.03013 75.3532 1.34237 75.3428 1.63376 75.431C3.97891 76.2303 6.40697 76.7623 8.87158 77.016C8.67567 76.8664 8.46391 76.7088 8.26146 76.5582C3.44306 72.9759 -9.35629 63.4584 3.69993 39.3572C3.83418 39.1089 4.04099 38.9074 4.29276 38.7798C4.54453 38.6523 4.82926 38.6046 5.10884 38.6433C5.38843 38.6819 5.64955 38.805 5.85729 38.9961C6.06502 39.1872 6.20947 39.4372 6.27136 39.7126C7.40307 44.7956 9.41289 50.6603 11.6595 51.8775C11.8421 51.9873 12.0474 52.0534 12.2596 52.0712C12.4718 52.0886 12.6853 52.0576 12.8835 51.9793C14.0407 51.5454 14.0932 51.3737 13.8214 48.9158C13.3703 44.8391 12.5307 37.2503 19.6504 20.8955C19.7964 20.5648 20.0652 20.3037 20.3999 20.1674C20.7347 20.031 21.1093 20.03 21.4448 20.1646C22.7466 20.6966 29.4486 23.2341 33.4914 20.9267C35.196 19.9534 36.2483 18.1782 36.619 15.6507C37.8351 7.35666 37.6561 3.30893 37.4412 1.63448C37.4072 1.36748 37.4516 1.09632 37.5691 0.854186C37.6867 0.612046 37.8722 0.409421 38.1031 0.271089C38.3339 0.132757 38.6 0.0647172 38.8689 0.0752872C39.1378 0.0858573 39.3978 0.174581 39.6171 0.330607C44.9283 4.17162 49.6819 8.73015 53.7427 13.8762C60.8793 22.9908 64.4292 32.5436 64.2932 42.2688C64.2801 42.8155 64.4334 43.3532 64.7321 43.8111C65.0308 44.269 65.4618 44.6255 65.9671 44.8337C66.4771 45.0559 67.0423 45.1182 67.5887 45.0125C68.1347 44.9067 68.6358 44.6379 69.0262 44.2414C70.4561 42.7221 71.6916 41.0309 72.7041 39.2067C72.8392 38.9749 73.0388 38.7874 73.2781 38.6668C73.5175 38.5462 73.7867 38.4977 74.0532 38.5273C74.3201 38.5569 74.572 38.6632 74.7791 38.8335C74.9867 39.0036 75.14 39.2303 75.2209 39.486C76.4652 43.4353 79.4485 56.7521 68.9892 70.4462C70.0536 69.623 71.0502 68.7163 71.9707 67.735C72.131 67.5638 72.332 67.4357 72.555 67.3639C72.7784 67.2917 73.0159 67.2772 73.2463 67.3222C73.4763 67.3672 73.6914 67.4699 73.8709 67.6205C74.0504 67.7716 74.1887 67.9658 74.2729 68.1843C74.6847 69.4527 74.8306 70.7929 74.7011 72.1203C74.5716 73.4473 74.17 74.734 73.5207 75.8987C71.5822 79.7343 66.5248 85.0686 53.4426 88.6987C47.6092 90.2692 41.5862 91.0263 35.5454 90.9475ZM27.1465 88.7006C37.5575 89.4891 45.5103 88.9225 52.9335 86.8623C65.3454 83.4184 70.055 78.5316 71.8201 75.0389C72.7256 73.4122 73.0463 71.5246 72.7289 69.6905C71.0114 71.3998 69.0771 72.8769 66.9759 74.0839C66.6903 74.2471 66.3556 74.3029 66.0321 74.2415C65.7086 74.18 65.4174 74.0055 65.2113 73.7489C65.0046 73.4928 64.8967 73.171 64.9055 72.8418C64.9149 72.5125 65.0411 72.1977 65.2617 71.9529C76.7719 59.1772 75.0521 46.266 73.7292 41.194C72.778 42.7815 71.6514 44.2569 70.3701 45.5923C69.7138 46.2601 68.8705 46.713 67.9515 46.8908C67.0325 47.0686 66.0812 46.963 65.2234 46.5881C64.3666 46.2363 63.6364 45.6323 63.1301 44.8563C62.6239 44.0802 62.3649 43.1686 62.3883 42.2422C62.6772 21.5657 44.969 6.69311 39.4398 2.56004C39.5822 4.7814 39.5343 8.89981 38.504 15.927C38.0439 19.0642 36.6752 21.303 34.4358 22.5818C30.0617 25.0788 23.6838 23.0709 21.198 22.1162C14.4957 37.6862 15.2876 44.8437 15.7149 48.7061C15.9768 51.0735 16.1659 52.7833 13.5524 53.7637C13.0989 53.9367 12.6128 54.008 12.1288 53.9715C11.6447 53.9349 11.1746 53.7923 10.7522 53.553C7.76834 51.9361 5.78506 45.7921 4.7295 41.4862C-0.0262276 50.7161 -1.26382 58.5956 1.05295 64.9191C3.0189 70.2858 7.01218 73.255 9.39798 75.029C10.8771 76.1285 11.7698 76.7927 11.4084 77.7867C11.004 78.8994 9.6592 79.6428 2.9937 77.8083C9.52658 84.1483 18.0713 88.0017 27.1466 88.7006H27.1465Z" fill="#050505"/>
<path d="M36.2291 88.5905C30.2503 86.6654 24.8033 83.3707 20.3218 78.9684C15.8402 74.5666 12.4479 69.1789 10.4147 63.2343C10.3586 63.073 10.352 62.8985 10.3959 62.7329C10.4398 62.5678 10.532 62.4196 10.6608 62.3074C10.7896 62.1949 10.9491 62.1236 11.1186 62.1029C11.2882 62.0818 11.4603 62.1123 11.6125 62.1897C15.4661 64.1556 24.0627 67.5639 25.7796 59.9217C27.0583 53.805 27.5662 47.5528 27.2916 41.3103C27.2857 41.1857 27.3072 41.0613 27.3546 40.946C27.402 40.8307 27.4742 40.7272 27.566 40.6428C27.6578 40.5584 27.767 40.4953 27.8859 40.4578C28.0048 40.4203 28.1305 40.4094 28.2541 40.4258C31.0562 40.8039 38.93 40.2144 43.4563 23.2646C43.4966 23.1156 43.5764 22.9802 43.6874 22.873C43.7983 22.7657 43.9362 22.6905 44.0864 22.6553C44.2366 22.6201 44.3936 22.6263 44.5406 22.6731C44.6876 22.72 44.8192 22.8058 44.9213 22.9215C47.4746 25.7927 53.6081 34.4728 53.6324 51.6243C53.6245 52.8087 53.983 53.9664 54.6594 54.9388C55.7902 56.5318 58.105 57.9671 62.753 56.0041C62.7656 55.9984 62.7796 55.997 62.7927 56.0003C62.8062 56.0036 62.8179 56.0111 62.8263 56.0219C62.8348 56.0327 62.8394 56.0458 62.8394 56.0594C62.8394 56.073 62.8348 56.0866 62.8263 56.0974C61.6339 57.5553 54.2074 66.895 55.7453 71.5102C57.2351 75.9804 58.9021 76.7314 59.2461 76.8416C59.254 76.844 59.2611 76.8477 59.2676 76.8534C59.2737 76.859 59.2788 76.8656 59.2821 76.8735C59.2854 76.8811 59.2872 76.8895 59.2868 76.8979C59.2868 76.9059 59.2844 76.9144 59.2807 76.9219C57.1257 81.1895 53.8185 84.768 49.7348 87.2527C47.7098 88.4273 45.4564 89.1543 43.1268 89.3851C40.7973 89.6159 38.4453 89.3448 36.2291 88.5905Z" fill="#FFFF29"/>
<path d="M41.5524 90.4174C39.6398 90.416 37.74 90.1054 35.9265 89.498C29.8127 87.5213 24.243 84.1478 19.6587 79.6442C15.0744 75.1411 11.6015 69.6314 9.51517 63.5527C9.3961 63.2117 9.38185 62.8425 9.47426 62.4935C9.56668 62.1441 9.76152 61.8307 10.0336 61.5934C10.3057 61.3555 10.6426 61.205 11.0011 61.1609C11.3595 61.1163 11.723 61.1806 12.0447 61.3447C14.1194 62.403 19.28 64.7071 22.3795 63.2511C23.6403 62.6591 24.4483 61.5024 24.8495 59.7161C26.1126 53.6829 26.6131 47.5151 26.3393 41.3568C26.327 41.0929 26.3729 40.8295 26.4736 40.5853C26.5744 40.3411 26.7275 40.1219 26.9222 39.9434C27.1169 39.7649 27.3485 39.6313 27.6005 39.5521C27.8525 39.4729 28.1188 39.4501 28.3806 39.4851C29.4955 39.6044 30.6231 39.4982 31.6962 39.1728C32.7693 38.8475 33.7661 38.3096 34.6273 37.5913C37.9822 35.0106 40.6429 30.1089 42.5353 23.0222C42.62 22.7069 42.7884 22.4206 43.0226 22.1934C43.2569 21.9662 43.5483 21.8067 43.8659 21.7318C44.1835 21.6569 44.5153 21.6695 44.8264 21.7681C45.1374 21.8667 45.4159 22.0477 45.6324 22.2919C48.3159 25.3091 54.5597 34.2075 54.5845 51.6265C54.5737 52.6139 54.8715 53.5802 55.4357 54.3908C56.7666 56.2656 59.1034 56.5142 62.3821 55.13C62.5906 55.0414 62.8229 55.0254 63.0417 55.084C63.2605 55.1432 63.453 55.274 63.5891 55.4551C63.7251 55.6366 63.7962 55.8585 63.791 56.085C63.7863 56.3116 63.7055 56.5302 63.562 56.7056C60.4623 60.4953 55.5171 67.8175 56.6483 71.2126C58.0497 75.4174 59.5213 75.9329 59.5358 75.9376C59.6727 75.9812 59.7989 76.0535 59.9055 76.1496C60.0121 76.2462 60.0972 76.364 60.1547 76.4958C60.2122 76.6276 60.2407 76.7702 60.2388 76.9137C60.2369 77.0577 60.2042 77.1994 60.143 77.3293C57.9011 81.7682 54.4629 85.4912 50.217 88.0776C47.589 89.6162 44.5974 90.4239 41.5524 90.4174ZM36.5305 87.6902C38.6174 88.4022 40.8327 88.6588 43.0271 88.4421C45.2214 88.2254 47.3441 87.541 49.2517 86.435C52.933 84.1933 55.9639 81.027 58.0432 77.2505C57.1583 76.5722 55.9298 75.0829 54.8406 71.8149C53.5332 67.8902 57.5869 61.4775 60.3501 57.7362C58.1432 58.1415 55.589 57.8989 53.8819 55.494C53.0891 54.3621 52.6684 53.0112 52.6791 51.6293C52.6558 35.1201 46.9271 26.6739 44.3278 23.6935C42.3265 31.0989 39.4541 36.2823 35.7886 39.102C34.7436 39.9602 33.5397 40.6039 32.2458 40.9964C30.9518 41.3888 29.5933 41.5223 28.2477 41.3892C28.5171 47.6774 27.9999 53.9742 26.7083 60.1341C26.1768 62.4996 24.9929 64.1287 23.1895 64.9763C21.6084 65.7184 17.9851 66.4581 11.3937 63.1512C13.4081 68.9034 16.7252 74.1115 21.0859 78.3683C25.4466 82.6256 30.7326 85.8158 36.5305 87.6902ZM63.1254 56.8848L63.1212 56.8867L63.1254 56.8848ZM62.0885 55.4973L62.0862 55.5001L62.0885 55.4973Z" fill="#050505"/>
<path d="M39.2899 89.4652C39.2899 89.4652 25.8552 81.8287 27.2386 73.1813C27.2501 73.1124 27.2783 73.0472 27.3208 72.9918C27.3632 72.9365 27.4186 72.8924 27.4821 72.8633C27.5456 72.8342 27.6152 72.8211 27.6849 72.8253C27.7546 72.8295 27.8222 72.8511 27.8817 72.8872C29.7418 74.0252 35.9894 77.5386 36.3616 73.6396C36.7867 69.1863 35.648 60.7913 38.9833 56.049C39.0197 55.9974 39.0671 55.9542 39.1221 55.9232C39.1772 55.8918 39.2384 55.8731 39.3015 55.8684C39.3646 55.8637 39.4279 55.8731 39.487 55.8956C39.5461 55.9181 39.5994 55.9537 39.6431 55.9992C42.1042 58.5716 56.2317 74.5037 43.8482 89.3038L39.2899 89.4652Z" fill="#FFFB7D"/>
<path d="M39.0538 90.4263L38.8192 90.2931C38.2472 89.968 24.8272 82.2246 26.2981 73.0303C26.3343 72.8066 26.4248 72.5955 26.5618 72.4154C26.6988 72.2352 26.878 72.0917 27.0837 71.9974C27.2893 71.9027 27.515 71.8604 27.7408 71.8736C27.9667 71.8872 28.1858 71.9557 28.3788 72.0739C31.3913 73.9168 34.0553 74.8353 35.007 74.3592C35.1015 74.3118 35.3525 74.1861 35.4134 73.5486C35.5198 72.4336 35.5245 71.0063 35.5296 69.4944C35.545 64.9322 35.5639 59.2541 38.2043 55.5001C38.3217 55.3336 38.4746 55.1948 38.652 55.0939C38.8294 54.9931 39.0269 54.933 39.2303 54.918C39.4338 54.9025 39.638 54.9326 39.8285 55.0057C40.0189 55.0789 40.1908 55.1934 40.3318 55.3407C43.7219 58.9319 46.3943 63.138 48.205 67.7331C51.214 75.8133 49.9598 83.4836 44.5788 89.915L44.3063 90.2406L39.0538 90.4263ZM28.0983 74.1251C27.7838 81.1255 37.8826 87.5073 39.5345 88.5022L43.3856 88.3661C48.1428 82.4845 49.1642 75.7683 46.4198 68.3982C44.7874 64.2516 42.4115 60.4381 39.4091 57.1452C37.4652 60.4362 37.4484 65.4384 37.4348 69.501C37.4296 71.0574 37.4246 72.5275 37.3099 73.7292C37.299 74.2128 37.1587 74.6847 36.9033 75.0952C36.6481 75.5056 36.2872 75.8405 35.8585 76.0638C34.7591 76.6131 32.5289 76.6942 28.0983 74.1251Z" fill="#050505"/>
</g>
<defs>
<clipPath id="clip0_661_13357">
<rect width="79" height="91" fill="white"/>
</clipPath>
</defs>
</svg>
