<svg width="117" height="142" viewBox="0 0 117 142" fill="none" xmlns="http://www.w3.org/2000/svg">
<path d="M68.9381 75.2383C66.5708 79.0532 67.7135 84.2884 71.7166 86.7205C75.7197 89.1526 80.9549 88.0099 83.3221 84.1949L111.788 38.8563C114.155 35.0413 113.012 29.8062 109.009 27.3741C105.006 24.942 99.771 26.0846 97.4037 29.8996L68.9381 75.2383Z" fill="#95FF00"/>
<path d="M69.5494 83.2385C73.7407 85.7354 78.7877 84.5279 81.3431 80.7778L109.809 35.4391C111.151 33.3759 111.365 30.9236 110.632 28.7764C113.999 31.8314 114.149 35.672 112.099 39.1755L83.6338 84.5141C81.2665 88.3291 75.9665 89.6599 72.0282 87.0397C70.0883 85.9501 68.9722 84.3025 68.3621 82.4083C68.5502 82.4731 69.0498 82.8558 69.5494 83.2385Z" fill="#95FF00"/>
<path d="M82.1101 85.2873C82.1101 85.2873 71.3179 63.4655 39.5553 61.57C39.5553 61.57 21.3966 58.6796 19.3546 67.6585C19.3546 67.6585 11.3981 88.9125 14.3265 104.235C18.8779 127.064 60.5494 144.793 83.3993 113.306C88.0562 107.123 92.8472 87.7247 82.1101 85.2873Z" fill="#95FF00"/>
<path d="M53.6605 73.1687C52.9217 77.7554 56.3412 81.8808 60.9279 82.6196C65.5146 83.3584 69.9515 80.2567 70.6903 75.67L78.4015 22.7575C79.1403 18.1708 75.7207 14.0454 71.134 13.3066C66.5473 12.5678 62.1104 15.6695 61.5598 20.321L53.6605 73.1687Z" fill="#95FF00"/>
<path d="M57.3718 80.0934C62.1467 80.8971 66.3954 77.7305 67.1342 73.1438L74.8454 20.2313C75.0591 17.7791 74.2024 15.3789 72.71 13.6016C76.8492 15.0281 78.9517 18.6996 78.4074 22.7219L70.6962 75.6344C69.9574 80.2211 65.7087 83.3876 61.122 82.6488C58.9227 82.3119 57.1709 81.2871 55.8018 79.7628C56.1781 79.8925 56.7426 80.087 57.3718 80.0934Z" fill="#95FF00"/>
<path d="M21.2131 59.2215C22.14 54.6996 26.7002 51.8509 31.4102 52.8427L31.5983 52.9075C36.0554 54.0226 39.1571 58.4595 37.9772 63.1046L35.0794 75.788C34.1525 80.3098 29.5923 83.1586 24.8823 82.1668L24.6941 82.1019C20.049 80.922 17.1354 76.55 18.3153 71.9048L21.2131 59.2215Z" fill="#95FF00"/>
<path d="M39.5002 55.6316C40.4271 51.1098 44.9873 48.261 49.6973 49.2528L49.8855 49.3177C54.5306 50.4976 57.4442 54.8696 56.2643 59.5148L53.3665 72.1981C52.4396 76.72 47.8794 79.5687 43.1694 78.5769L42.9812 78.5121C38.3361 77.3322 35.4225 72.9601 36.6024 68.315L39.5002 55.6316Z" fill="#95FF00"/>
<path d="M23.1503 78.6142C27.8603 79.606 32.1675 76.8805 33.3474 72.2354L36.2452 59.552C36.4461 58.3583 36.3356 56.8468 36.1602 55.5234C38.5285 57.813 38.6911 60.395 38.1596 63.1587L35.2618 75.842C34.3349 80.3639 29.7747 83.2126 25.3177 82.0976C21.9895 81.3715 19.5628 78.6407 18.9006 75.6761C19.7052 77.0059 21.204 78.1539 23.1503 78.6142ZM41.2495 74.9588C45.9596 75.9506 50.4549 73.29 51.3818 68.7681L54.2796 56.0848C54.4805 54.8911 54.4348 53.1914 54.1946 52.0561C56.3099 54.4691 56.6606 57.1159 56.1291 59.8796L53.2314 72.5629C52.3044 77.0848 47.8091 79.7454 43.0991 78.7536L42.9109 78.6887C39.5828 77.9627 37.156 75.2319 36.4938 72.2673C37.7396 73.5386 39.3032 74.4985 41.2495 74.9588ZM70.8807 94.6431C63.3412 87.2033 40.2396 87.6613 37.8945 107.902C44.6382 88.3352 63.491 91.0438 70.8807 94.6431Z" fill="#95FF00"/>
<path d="M74.1732 74.0989C68.9498 67.8784 65.6811 73.6981 54.4509 70.2487C49.4943 68.7509 43.988 78.0093 50.0937 84.113C58.5028 92.6944 61.7194 85.8042 63.3808 89.5342C64.9773 93.4523 67.2287 94.8597 68.3192 99.0245C69.1696 102.054 83.0722 102.635 86.1399 98.0095C92.0225 88.8807 82.1932 83.8092 74.1732 74.0989Z" fill="#95FF00"/>
<path d="M74.3425 76.0498C68.931 69.7644 65.4741 75.5193 53.8676 71.9402C48.7228 70.3775 42.8987 79.9474 49.3158 86.3689C58.0364 95.2681 61.5708 88.0665 62.9792 91.9198C64.7639 95.9028 66.9504 97.4983 68.1643 101.916C68.9498 105.134 61.0625 113.361 61.0625 113.361C61.0625 113.361 70.8673 127.054 75.3169 122.694C83.5805 114.596 84.8572 106.617 86.6143 100.907C90.8418 87.4194 82.8621 86.1427 74.3425 76.0498Z" fill="#95FF00"/>
<path d="M85.0478 87.1059C91.0301 92.9566 84.2344 111.453 75.8539 118.669C54.7793 136.454 25.5584 125.962 15.9737 109.188C24.034 127.331 54.8123 139.412 77.2751 121.263C86.2849 114.054 95.5584 93.2542 85.0478 87.1059Z" fill="#95FF00"/>
<path d="M66.5868 101.585C66.8919 102.532 66.185 103.973 65.4132 105.601C67.0736 103.226 68.5459 100.787 68.1823 99.3987C67.1566 95.0458 66.0989 93.8393 64.3142 89.8564C62.6529 86.1264 59.3714 93.2047 50.6509 84.3054C47.3482 81.0623 47.3281 76.8455 48.8067 73.7767C46.1344 76.6446 45.0714 82.172 49.2435 86.5568C57.964 95.456 61.4985 88.2545 62.9069 92.1077C64.5034 96.0259 65.5611 97.2323 66.5868 101.585Z" fill="#95FF00"/>
<path d="M94.2079 27.8167L74.9637 57.7384L79.7485 22.3277C81.8503 8.65414 61.3481 6.07425 59.7921 19.2342L56.1916 45.1982C51.9198 41.8254 42.2709 43.1166 40.3349 50.9474C38.9284 45.7048 24.9779 42.2728 21.7715 55.1042C21.7715 55.1042 19.9535 63.9743 19.1196 66.8708C17.6217 72.0669 14.0149 81.3278 12.7793 87.5541C9.12114 105.982 22.3503 119.724 37.0816 125.17C37.3898 125.285 37.7012 125.396 38.0157 125.505C53.2938 130.77 72.7465 128.251 82.6066 110.739C89.7478 98.0455 87.2773 90.3692 82.5529 83.5469L111.412 38.371C118.269 27.8894 101.239 16.8618 94.2079 27.8167ZM63.0666 18.5064C64.0628 11.2873 75.442 13.8036 74.3876 21.1185L67.3758 69.7403C65.6678 69.3834 62.0049 69.7035 58.0455 68.5728L60.8852 55.8089C61.4928 53.1105 60.4238 49.3096 59.0855 47.2196L63.0666 18.5064ZM53.6516 48.2273C56.0768 50.6182 56.8426 51.9483 53.1357 66.9228C49.3293 65.611 45.0162 68.0501 43.5797 72.218C41.1897 71.3943 40.6242 68.456 40.7299 65.612C40.8803 61.4644 41.956 55.5369 42.6415 52.2944C44.0341 45.7408 51.1404 45.7499 53.6516 48.2273ZM37.3084 57.4056C37.1611 59.4472 36.4051 69.8823 34.1421 73.8624C30.3366 80.5452 19.9419 75.2391 21.6461 67.5919L24.3929 55.0425C26.0818 47.5375 38.0179 47.6435 37.3084 57.4056ZM71.7623 114.606C57.0875 126.94 36.6971 123.021 25.5512 112.962C15.9466 104.293 10.5214 93.7631 19.5477 73.485C20.5728 77.5721 32.0854 85.2104 39.4312 73.7087C40.3702 74.8604 41.5363 75.7322 42.8074 76.3115C42.9883 82.023 48.6234 85.7076 50.4485 86.7644C45.5718 87.6775 40.7376 91.0601 40.1968 99.104C44.224 86.899 58.3191 87.8755 59.9505 89.2005C61.8394 90.7386 63.262 95.5801 63.2007 97.8978C63.1744 98.8117 62.3235 101.458 62.3235 101.458C62.3235 101.458 63.9913 99.0827 64.1752 98.1515C64.7365 95.2939 63.0314 88.8695 60.8098 86.9703C58.1665 84.717 50.0944 82.7842 47.69 80.2783C42.8748 75.2601 47.8683 67.1724 52.5019 69.3488C57.7487 71.8124 61.1545 71.9263 64.1107 72.0917C67.5296 72.2839 70.5429 72.4058 72.5751 75.4051C74.696 78.5318 79.3288 85.2656 80.5641 87.7647C84.6112 95.9529 78.5682 108.883 71.7623 114.606ZM105.696 37.3283L79.2784 79.2367C76.0644 75.3012 74.7846 72.6561 73.0469 71.9266L74.0646 64.0828L96.8421 29.0448C100.631 23.1506 110.261 30.3949 105.696 37.3283Z" fill="black"/>
</svg>
